<!--
The lila Alpha pieces set from
https://github.com/ornicar/lila/tree/master/public/piece/alpha
modified by buhodev (https://github.com/buhodev) for the usage in svelte-chess.
https://github.com/gtim/svelte-chess

License: "Free for personal non commercial use"
http://www.enpassant.dk/chess/downl/alpha.zip

See also: https://github.com/ornicar/lila/blob/master/COPYING.md
-->
<svg xmlns="http://www.w3.org/2000/svg" fill="none" viewBox="0 0 32 32">
  <g id="bB" fill-rule="evenodd" clip-rule="evenodd">
    <path fill="#F9F9F9" d="m11.44 20.15-1.63-4.63L15.84 9l6.58 5.86-2.07 5.93.78 2.38-10.28-.14.6-2.88Z"/>
    <path fill="#101010" d="M12 21.33c-.05.4-.19.83-.4 1.28h8.8a4.8 4.8 0 0 1-.4-1.28h-8Zm7.73-1.14.72-1.14A13 13 0 0 0 16 18.3c-1.5-.02-2.98.23-4.45.74l.72 1.14c1.22-.42 2.47-.62 3.73-.6 1.25-.02 2.5.18 3.73.6Zm-6.75 3.54H9.75c.7-1.2 1.07-2.4 1.13-3.57a13.23 13.23 0 0 1-2.54-3.5 4.5 4.5 0 0 1-.09-3.49 8.6 8.6 0 0 1 1.84-2.96 29 29 0 0 1 4.88-3.85c-.18-.12-.42-.3-.72-.56-.3-.26-.45-.67-.45-1.24 0-.6.21-1.1.64-1.5.42-.4.95-.6 1.56-.6.6 0 1.12.2 1.55.6.44.4.65.9.65 1.5 0 .57-.15.98-.46 1.24-.3.26-.54.44-.7.56a29.1 29.1 0 0 1 4.85 3.85c.89.97 1.5 1.96 1.86 2.96a4.5 4.5 0 0 1-.1 3.5 13.23 13.23 0 0 1-2.52 3.49 7.59 7.59 0 0 0 1.12 3.57h-3.23l.15.25c.35.56.71.87 1.1.94.38.07.84.11 1.39.11h3.9c.8 0 1.53.32 2.21.97.69.65 1.03 1.58 1.03 2.8h-7.74a5.3 5.3 0 0 1-3.49-1.32 3.95 3.95 0 0 1-1.57-3.1c0 1.18-.53 2.22-1.58 3.1a5.3 5.3 0 0 1-3.48 1.32H3.2c0-1.22.34-2.15 1.02-2.8a3.16 3.16 0 0 1 2.22-.97h3.9c.54 0 1-.04 1.38-.1.38-.08.75-.4 1.1-.95l.16-.25Zm2.29-10.95h-1.49v1.4h1.49v2.57h1.46v-2.58h1.49v-1.39h-1.49v-1.62h-1.46v1.62Z"/>
  </g>
  <g id="bK" fill-rule="evenodd" clip-rule="evenodd">
    <path fill="#F9F9F9" d="m8.65 23.2-.86 5 16.36.08-.74-5.23s5.05-4.9 5.16-7.3c.1-2.39-.55-5.17-3.78-6.35-2.84-1.04-5.8 1.9-5.8 1.9l-2.84-2.52-2.97 2.5s-2.9-2.13-4.01-2.04a5.83 5.83 0 0 0-5.65 5.21c.15 5.18 5.13 8.75 5.13 8.75Z"/>
    <path fill="#101010" d="M16 27.64h7.64l-.19-1.14H8.55l-.2 1.14H16Zm0-14.39a8.53 8.53 0 0 0-.97-1.73A3 3 0 0 1 16 10.5c.31.18.64.52.97 1.02-.4.53-.72 1.1-.97 1.73Zm-1.52 7.1c-1.6.1-3.18.41-4.73.9a20.98 20.98 0 0 1-3.13-3.34 5.4 5.4 0 0 1-1.2-3.14c0-.93.38-1.76 1.15-2.49.77-.73 1.54-1.1 2.32-1.1.7 0 1.4.33 2.1.98.7.66 1.24 1.33 1.6 2.04.32.57.7 1.48 1.18 2.74.46 1.26.7 2.4.71 3.4Zm-5.46 3.38-.41 2.44 2.26-1.31-1.85-1.13ZM16 9.56c-.49 0-1.2.63-2.13 1.9a14.5 14.5 0 0 0-.78-.87c.97-1.45 1.94-2.18 2.91-2.18.96 0 1.93.73 2.9 2.18-.2.2-.46.49-.78.86-.93-1.26-1.64-1.89-2.12-1.89Zm0 12.11c-.01-1.31-.23-2.7-.66-4.18a20.98 20.98 0 0 0-1.72-4.32A7.24 7.24 0 0 0 11 10.45a4.03 4.03 0 0 0-2.08-.65c-1.08 0-2.16.48-3.25 1.45a4.6 4.6 0 0 0-1.64 3.58c0 1.25.51 2.57 1.54 3.97a23.35 23.35 0 0 0 3.9 4.06 19.27 19.27 0 0 1 6.54-1.19Zm0 7.13H7l.95-5.7c-3.38-2.92-5.08-5.7-5.1-8.37a5.58 5.58 0 0 1 1.96-4.28 6.1 6.1 0 0 1 4.17-1.8c.82 0 1.64.24 2.48.72a8.73 8.73 0 0 1 3.77 4.43c.39.95.64 1.73.77 2.36.12-.63.38-1.41.77-2.36.38-.94.9-1.8 1.54-2.57a8.44 8.44 0 0 1 2.22-1.86 4.93 4.93 0 0 1 2.49-.73c1.45 0 2.84.6 4.15 1.8a5.63 5.63 0 0 1 1.97 4.3c-.02 2.65-1.72 5.44-5.1 8.35l.96 5.7h-9Zm1.52-8.46c0-1 .23-2.14.7-3.4.47-1.26.86-2.17 1.19-2.74a7.2 7.2 0 0 1 1.58-2.04c.7-.65 1.41-.97 2.12-.97.77 0 1.54.36 2.3 1.1a3.4 3.4 0 0 1 1.17 2.48c0 1-.4 2.05-1.2 3.14-.8 1.1-1.85 2.21-3.13 3.34-1.56-.49-3.14-.8-4.73-.9Zm5.46 3.4-1.86 1.12 2.27 1.31-.4-2.44ZM16 21.66c2.26.02 4.44.42 6.55 1.19a23.35 23.35 0 0 0 3.89-4.06 6.81 6.81 0 0 0 1.54-3.97 4.6 4.6 0 0 0-1.64-3.58 4.97 4.97 0 0 0-3.25-1.45c-.68 0-1.39.22-2.1.65a7 7 0 0 0-1.87 1.64 11.4 11.4 0 0 0-.94 1.44l-.21.42a20 20 0 0 0-1.33 3.54 15.04 15.04 0 0 0-.64 4.18Zm-2.17 2.49L16 25.5l2.17-1.31L16 22.84l-2.17 1.32Zm1.44-19.5V3.17h1.46v1.49h1.68v1.48h-1.68v2.4c-.5-.18-.99-.18-1.46 0v-2.4h-1.68V4.66h1.68Z"/>
  </g>
  <g id="bN" fill-rule="evenodd" clip-rule="evenodd">
    <path fill="#F9F9F9" d="M25.91 28.22c-6.38-4.7-1.12-14.38-7.06-20.98l.93-.25s4.63 2.6 5 4c2.85 7.33.65 10.8 2.11 16.83l-.98.4ZM15.18 8.17l1.89 2.75-4.88-.04 3-2.7Zm-7.4 7.17-1.45-.65.65-1.46 2 .43-1.2 1.68Z"/>
    <path fill="#101010" d="m7.84 13.56-.8.02-.42 1 1.08.33.72-.86-.58-.49Zm8.38-2.92c.35.01.27-.34-.25-1.06s-.94-.94-1.25-.66l-1.81 1.7 3.3.02Zm-5.28-1.53c.06-.4.66-.97 1.8-1.68 1.14-.71 2.3-1.46 3.45-2.24l1.8-2.4 1.5 3.38c3.56 1.8 5.81 3.97 6.75 6.53.94 2.55 1.2 5.7.74 9.43-.18 1.33-.16 2.56.07 3.68.24 1.13.54 2.12.9 2.97l-19.4.02c-.1-1.86.1-3.43.6-4.71a9.5 9.5 0 0 1 2.87-3.71 2.9 2.9 0 0 0 1.28-.62c.34-.3.62-.6.84-.92l.98-.01 2.15-.45 2.18-1.52 1.03-3.23c0-.18-.04-.36-.13-.54a1.92 1.92 0 0 1-.18-.57c-.64 2.37-1.48 3.87-2.51 4.5a5.5 5.5 0 0 1-2.99.92c-2.46-.44-3.98-.13-4.56.93l-.88 1.6-3.39-1.9 1.8-1.27-.8-.78-1.9 1.34-.19-4.64 6.19-4.11Zm15.33 18.62a6.52 6.52 0 0 1-1.33-4.82c.17-1.86.32-3.74.42-5.66a14.1 14.1 0 0 0-.78-5.5c-.63-1.74-2.27-3.17-4.94-4.3 2.3 1.71 3.6 3.5 3.95 5.35.33 1.85.42 3.68.25 5.47-.16 1.8-.23 3.51-.18 5.14.04 1.63.9 3.07 2.6 4.32Z"/>
  </g>
  <g id="bP" fill-rule="evenodd" clip-rule="evenodd">
    <path fill="#101010" d="M16 28.8H6.97v-1.16c-.04-.83.17-1.55.65-2.14a7.93 7.93 0 0 1 1.96-1.69 8.57 8.57 0 0 0 2.68-3.4c.57-1.31.97-2.7 1.22-4.18H9l4.44-3.73a3.7 3.7 0 0 1-1.35-2.94c0-1.07.38-2 1.14-2.76A3.74 3.74 0 0 1 16 5.64c1.07 0 2 .39 2.76 1.16a3.8 3.8 0 0 1 1.15 2.76 3.7 3.7 0 0 1-1.35 2.94L23 16.23h-4.48a17.5 17.5 0 0 0 1.21 4.18 8.64 8.64 0 0 0 2.7 3.4c.81.53 1.46 1.1 1.94 1.69.47.6.7 1.3.66 2.14v1.16H16Z"/>
  </g>
  <g id="bQ" fill-rule="evenodd" clip-rule="evenodd">
    <path fill="#F9F9F9" d="m8.13 28.15.64-7 7.41-2.02 7.15 2.08.54 6.98-15.74-.04Z"/>
    <path fill="#101010" d="M9.22 23.73c.04.75-.04 1.58-.24 2.47l2.1-1.34-1.86-1.13ZM16 28.8H6.9c1.18-2.4 1.48-4.79.89-7.14a23.23 23.23 0 0 0-3.17-7.02 1.9 1.9 0 0 1-1.74-.57c-.4-.4-.6-.88-.6-1.45 0-.56.2-1.04.6-1.44.4-.4.89-.6 1.45-.6.56 0 1.04.2 1.44.6a1.97 1.97 0 0 1 .51 2.04 2.4 2.4 0 0 1-.23.51l3.06 2.18 1.56-7.6a1.91 1.91 0 0 1-1.12-1.6c-.06-.47.1-.94.45-1.43a1.9 1.9 0 0 1 1.38-.83 2 2 0 0 1 1.5.46c.43.35.68.8.74 1.37.08.71-.16 1.3-.71 1.78L16 14.5l3.1-6.44a1.92 1.92 0 0 1-.73-1.78c.07-.56.32-1.02.75-1.37a2 2 0 0 1 1.5-.46 1.9 1.9 0 0 1 1.37.83c.35.5.5.96.46 1.42-.1.75-.47 1.29-1.12 1.61l1.56 7.6 3.06-2.18a1.8 1.8 0 0 1-.23-.51 1.97 1.97 0 0 1 .5-2.04c.4-.4.89-.6 1.45-.6.56 0 1.05.2 1.45.6.4.4.6.88.6 1.45 0 .56-.2 1.04-.6 1.44a1.97 1.97 0 0 1-1.75.57 22.88 22.88 0 0 0-3.17 7.02c-.58 2.35-.28 4.73.9 7.14H16Zm0-7.03c1.14 0 2.3.14 3.47.44 1.18.3 2.29.65 3.33 1.06.02-.43.07-.9.17-1.4a26.07 26.07 0 0 0-3.46-1.06 15.67 15.67 0 0 0-7.03 0 24.1 24.1 0 0 0-3.45 1.07c.08.5.14.96.17 1.39 1.03-.41 2.14-.76 3.32-1.06 1.17-.3 2.33-.44 3.48-.44Zm0 5.87h7.47a6.35 6.35 0 0 1-.38-1.14H8.91c-.1.4-.23.79-.38 1.14H16Zm6.78-3.9-1.86 1.12 2.1 1.34a8.1 8.1 0 0 1-.24-2.47Zm-8.95.73L16 25.83l2.17-1.31L16 23.17l-2.17 1.3Z"/>
  </g>
  <g id="bR" fill-rule="evenodd" clip-rule="evenodd">
    <path fill="#F9F9F9" d="M10.53 11.43 9.35 24.05l13.3.22-1.18-13.02-10.94.18Z"/>
    <path fill="#101010" d="M16 28.8H5.98l.46-4.13 2.48-1.84.78-10.3-2.32-1.67-.27-5.33h4.51v2.3h2.15v-2.3h4.46v2.3h2.14v-2.3h4.52l-.27 5.33-2.32 1.67.78 10.3 2.48 1.84.46 4.13H16Zm0-15.46h5.2l-.1-1.37H10.9l-.1 1.37H16Zm0 10.11h5.95l-.1-1.36h-11.7l-.1 1.36H16Z"/>
  </g>
  <g id="wB" fill-rule="evenodd" clip-rule="evenodd">
    <path fill="#F9F9F9" d="m14.82 5.72.01-2.17 2.32-.1v2.28h-2.33Zm-6 7.71c1.77-4.16 7.12-6.92 7.12-6.92s6.12 2.76 7.44 7.86c-.14 3.26-2.87 5.17-2.87 5.17l.42 3.47-10.2.09.72-3.65s-3.6-2.67-2.63-6.02Zm-1.6 12.34c2.74.1 5.56.36 6.65-2.21h1.45s0 2.98-1.38 3.85c-2.54 1.6-9.76.6-9.76.6s-.25-2.29 3.05-2.24Zm9.87.6-.56-2.9 1.59.08s.35 2.39 4.92 2.05c5.96-.27 4.97 2.39 4.97 2.39l-7.55.08-3.37-1.7Z"/>
    <path fill="#101010" d="M16 5.56c.69 0 1.02-.34 1-1.03.01-.57-.32-.86-1-.86-.69 0-1.02.29-1 .86-.03.69.3 1.03 1 1.03Zm0 18.82c0 1.18-.53 2.22-1.58 3.1a5.3 5.3 0 0 1-3.48 1.32H3.2c0-1.22.34-2.15 1.02-2.8a3.16 3.16 0 0 1 2.22-.97h3.9c.54 0 1-.04 1.38-.1.38-.08.75-.4 1.1-.95l.16-.25h1.2c-.08.22-.1.3-.05.2-.47 1.1-1.04 1.75-1.7 1.95-.67.2-1.44.3-2.29.3H6.4c-.54 0-.99.22-1.34.63-.36.42-.53.7-.53.83h6.62c.69 0 1.51-.34 2.48-1.02a3.36 3.36 0 0 0 1.46-2.89H9.75c.7-1.2 1.07-2.4 1.13-3.57a13.23 13.23 0 0 1-2.54-3.5 4.5 4.5 0 0 1-.09-3.49 8.6 8.6 0 0 1 1.84-2.96 29 29 0 0 1 4.88-3.85c-.18-.12-.42-.3-.72-.56-.3-.26-.45-.67-.45-1.24 0-.6.21-1.1.64-1.5.42-.4.95-.6 1.56-.6.6 0 1.12.2 1.55.6.44.4.65.9.65 1.5 0 .57-.15.98-.46 1.24-.3.26-.54.44-.7.56a29.1 29.1 0 0 1 4.85 3.85c.89.97 1.5 1.96 1.86 2.96a4.5 4.5 0 0 1-.1 3.5 13.23 13.23 0 0 1-2.52 3.49 7.59 7.59 0 0 0 1.12 3.57h-5.33c0 1.25.49 2.22 1.45 2.9.97.67 1.8 1.01 2.49 1.01h6.62c0-.13-.18-.41-.53-.83a1.7 1.7 0 0 0-1.34-.62h-3.75a7.9 7.9 0 0 1-2.29-.3c-.66-.21-1.23-.86-1.7-1.95.05.08.03.01-.04-.2h1.19l.15.24c.35.56.71.87 1.1.94.38.07.84.11 1.39.11h3.9c.8 0 1.53.32 2.21.97.69.65 1.03 1.58 1.03 2.8h-7.74a5.3 5.3 0 0 1-3.49-1.32 3.95 3.95 0 0 1-1.57-3.1Zm0-1.79h4.42a8.03 8.03 0 0 1-.45-2.4 11.39 11.39 0 0 0-3.97-.6c-1.4-.03-2.73.17-3.97.6a8.74 8.74 0 0 1-.45 2.4H16Zm0-4.17c1.66 0 3.14.21 4.45.66 1.97-1.88 2.71-3.68 2.22-5.4-.62-2.02-2.85-4.26-6.67-6.74-3.83 2.48-6.06 4.72-6.67 6.73-.5 1.73.24 3.53 2.22 5.4a13.4 13.4 0 0 1 4.45-.65Zm-.73-5.64v-1.62h1.46v1.62h1.49v1.4h-1.49v2.57h-1.46v-2.58h-1.49v-1.39h1.49Z"/>
  </g>
  <g id="wK" fill-rule="evenodd" clip-rule="evenodd">
    <path fill="#F9F9F9" d="m7.84 28.3.75-5.54-4.06-4.2s-2.6-4.5.47-7.52c4.1-4.03 7.9.32 7.9.32l3.06-2.59 2.88 2.6s3.38-3.64 6.72-1.2c3.35 2.45 4 4.97 1.84 8.31-2.16 3.34-3.92 4.39-3.92 4.39l.86 5.43H7.84Z"/>
    <path fill="#101010" d="M15.27 4.66V3.17h1.46v1.49h1.68v1.48h-1.68v2.4c-.5-.18-.99-.18-1.46 0v-2.4h-1.68V4.66h1.68Zm.73 4.9c-.49 0-1.2.63-2.13 1.9a14.5 14.5 0 0 0-.78-.87c.97-1.45 1.94-2.18 2.91-2.18.96 0 1.93.73 2.9 2.18-.2.2-.46.49-.78.86-.93-1.26-1.64-1.89-2.12-1.89ZM9.02 23.73l-.41 2.44 2.26-1.31-1.85-1.13Zm6.4-3.21c0-1.54-.2-2.97-.57-4.3a10.49 10.49 0 0 0-1.26-3.02 6.93 6.93 0 0 0-2.05-2.39A4.4 4.4 0 0 0 8.9 9.8c-1.08 0-2.16.48-3.25 1.45a4.6 4.6 0 0 0-1.64 3.58c0 1.13.45 2.36 1.35 3.69A16.7 16.7 0 0 0 8.53 22c2.21-.92 4.5-1.41 6.9-1.48ZM16 28.8H7l.95-5.7c-3.38-2.92-5.08-5.7-5.1-8.37a5.58 5.58 0 0 1 1.96-4.28 6.1 6.1 0 0 1 4.17-1.8c.82 0 1.64.24 2.48.72a8.73 8.73 0 0 1 3.77 4.43c.39.95.64 1.73.77 2.36.12-.63.38-1.41.77-2.36.38-.94.9-1.8 1.54-2.57a8.44 8.44 0 0 1 2.22-1.86 4.93 4.93 0 0 1 2.49-.73c1.45 0 2.84.6 4.15 1.8a5.63 5.63 0 0 1 1.97 4.3c-.02 2.65-1.72 5.44-5.1 8.35l.96 5.7h-9Zm0-1.16h7.64l-.78-4.66a18.78 18.78 0 0 0-6.86-1.3c-2.32 0-4.61.43-6.86 1.3l-.78 4.66H16Zm6.98-3.9.41 2.43-2.27-1.31 1.86-1.13Zm-6.4-3.22c2.38.07 4.68.56 6.89 1.48 1.2-1 2.25-2.16 3.15-3.48a6.65 6.65 0 0 0 1.36-3.7c0-1.4-.55-2.6-1.64-3.57a4.97 4.97 0 0 0-3.25-1.45c-.86 0-1.74.34-2.64 1.01a6.77 6.77 0 0 0-2.04 2.4c-.48.68-.9 1.69-1.28 3.02a15.93 15.93 0 0 0-.55 4.29Zm-2.75 3.64 2.2-1.32 2.14 1.35-2.2 1.31-2.14-1.34Z"/>
  </g>
  <g id="wN" fill-rule="evenodd" clip-rule="evenodd">
    <path fill="#F9F9F9" d="m5.5 13.45 12.3-8.88 1.47 2.3s5.25 1.62 6.22 6.07c.97 4.46.8 15.21.8 15.21l-17.01.15s-.58-4.53 2.87-7.2c3.45-2.65 3.45-3.3 3.45-3.3s-3.52-1.12-4.6-.25a8.8 8.8 0 0 0-1.83 2.15l-2.02-1.04 1.16-1.33-1.37-1.51-1.47.86.03-3.23Z"/>
    <path fill="#101010" d="m17.98 2.78-1.8 2.4c-1.15.79-2.3 1.54-3.44 2.25-1.14.71-1.74 1.27-1.8 1.68l-6.19 4.1.19 4.65 1.9-1.34.8.78-1.8 1.28 3.4 1.89.87-1.6c.58-1.06 2.1-1.37 4.56-.93a33 33 0 0 1-.86 1.33 2.7 2.7 0 0 1-1.8 1.1 9.5 9.5 0 0 0-2.85 3.72c-.5 1.28-.7 2.85-.61 4.7h19.4c-.36-.85-.66-1.84-.9-2.97a10.76 10.76 0 0 1-.07-3.7c.45-3.72.2-6.87-.74-9.42-.94-2.56-3.2-4.74-6.76-6.53l-1.5-3.39Zm-.26 2.27.92 2.08c1.87.83 3.23 1.8 4.1 2.93a15.54 15.54 0 0 1 2.09 3.66c.41 1.5.63 2.82.63 3.94s-.04 2.2-.14 3.2a52.2 52.2 0 0 0-.2 3.12 13.1 13.1 0 0 0 .5 3.66H9.7a6.43 6.43 0 0 1 .75-3.5 10.05 10.05 0 0 1 2.28-2.75c1.22-.34 2.01-.88 2.38-1.6.36-.72.83-1.4 1.4-2.05.22-.15.43-.23.6-.23.15 0 .33 0 .52-.03a2.87 2.87 0 0 0 2-1.32c.53-.77.8-1.63.82-2.58l-.3-1.05c-.57 2.5-1.55 3.83-2.93 4.02l-.7.08c-.25.03-.52.17-.82.42a3.51 3.51 0 0 0-2.15-.49c-1.16.1-2.02.24-2.58.42l-1.7 1.14-.6.7-.73-.43 1.22-1.02L7 15.13l-1 .65-.06-1.96 5.72-3.76c.23-.53.9-1.16 2.04-1.88l3.25-2.04.77-1.08ZM15 8.8c-.1 0-.2.04-.3.11l-1.8 1.56 3.3.04c.36 0 .28-.34-.24-1-.38-.47-.7-.7-.96-.7Zm-7.17 4.75-.51.06-.52.88.9.4.71-.85-.58-.49Z"/>
  </g>
  <g id="wP" fill-rule="evenodd" clip-rule="evenodd">
    <path fill="#F9F9F9" d="m11.47 15.33 3.06-3.02s-2.95-1.27-1.24-4.5c1.24-2.33 4.74-1.78 5.65.79.98 2.8-1.77 3.75-1.77 3.75l3.53 3.07-9.23-.1ZM7.79 27.8s-.12-1.67.8-2.41c3.05-2.7 5.27-6.02 5.8-9.36l3.26.03a16.31 16.31 0 0 0 5.02 8.78c1.59.92 1.54 3.1 1.54 3.1L7.8 27.8Z"/>
    <path fill="#101010" d="M8.12 27.64h15.75c.09-1.01-.6-1.96-2.06-2.84a10.01 10.01 0 0 1-3.07-3.75 14.31 14.31 0 0 1-1.24-4.82h-3a14.3 14.3 0 0 1-1.24 4.82 10.01 10.01 0 0 1-3.07 3.75c-1.47.88-2.16 1.83-2.07 2.84ZM16 28.8H6.97v-1.16c-.04-.83.17-1.55.65-2.14a7.93 7.93 0 0 1 1.96-1.69 8.57 8.57 0 0 0 2.68-3.4c.57-1.31.97-2.7 1.22-4.18H9l4.44-3.73a3.7 3.7 0 0 1-1.35-2.94c0-1.07.38-2 1.14-2.76A3.74 3.74 0 0 1 16 5.64c1.07 0 2 .39 2.76 1.16a3.8 3.8 0 0 1 1.15 2.76 3.7 3.7 0 0 1-1.35 2.94L23 16.23h-4.48a17.5 17.5 0 0 0 1.21 4.18 8.64 8.64 0 0 0 2.7 3.4c.81.53 1.46 1.1 1.94 1.69.47.6.7 1.3.66 2.14v1.16H16Zm-4.19-13.58h8.38l-3.52-2.99c1.4-.32 2.1-1.2 2.1-2.67 0-.79-.28-1.45-.82-1.97a2.71 2.71 0 0 0-1.95-.8 2.7 2.7 0 0 0-1.95.8 2.64 2.64 0 0 0-.82 1.97c0 1.46.7 2.35 2.1 2.67l-3.52 2.99Z"/>
  </g>
  <g id="wQ" fill-rule="evenodd" clip-rule="evenodd">
    <path fill="#F9F9F9" d="m7.95 28.37.75-5.57-3.38-8.67-2.12-.32-.25-1.98 1.76-.68 1.22 1.15-.29 1.54 3.85 3.1 1.76-8.89L9.92 6.7 11.15 5l1.76.7-.36 2.5 3.49 7.41 3.8-7.65L18.8 6.3l1.44-1.44L21.9 6l-1.01 2.34 1.62 8.27 4.06-2.52-.25-2.22 2.05-.72.9 2.05-3.24 1.61-2.73 8.27.75 4.82-16.1.47Z"/>
    <path fill="#101010" d="M16 27.64h7.47a9.72 9.72 0 0 1-.67-4.37 28 28 0 0 0-3.33-1.06 14.15 14.15 0 0 0-6.95 0c-1.18.3-2.29.65-3.32 1.06a9.93 9.93 0 0 1-.67 4.37H16Zm0-7.03c1.16 0 2.32.14 3.5.41 1.16.28 2.31.63 3.44 1.06.17-1.1.49-2.2.94-3.32a25 25 0 0 1 1.65-3.32l-3.44 2.42-1.92-9.4L16 17.15l-4.17-8.67-1.92 9.39-3.44-2.42c.63 1.1 1.18 2.2 1.63 3.32.45 1.12.78 2.22.96 3.32 1.13-.43 2.28-.78 3.45-1.06a15.2 15.2 0 0 1 3.49-.41Zm0 8.19H6.9a10.19 10.19 0 0 0 .89-7.14 23.23 23.23 0 0 0-3.17-7.02 1.92 1.92 0 0 1-1.74-.57c-.4-.4-.6-.88-.6-1.45 0-.56.2-1.04.6-1.44.4-.4.89-.6 1.45-.6.56 0 1.04.2 1.44.6a1.97 1.97 0 0 1 .51 2.04 2.4 2.4 0 0 1-.23.51l3.06 2.18 1.56-7.6a1.91 1.91 0 0 1-1.12-1.6c-.06-.47.1-.94.45-1.43a1.9 1.9 0 0 1 1.38-.83 2 2 0 0 1 1.5.46c.43.35.68.8.74 1.37.08.7-.16 1.3-.71 1.78L16 14.5l3.1-6.44a1.92 1.92 0 0 1-.73-1.78c.07-.56.32-1.02.75-1.37a2 2 0 0 1 1.5-.46 1.9 1.9 0 0 1 1.37.83c.35.5.5.96.46 1.42-.1.75-.47 1.29-1.12 1.61l1.56 7.6 3.06-2.18a1.8 1.8 0 0 1-.23-.51 1.97 1.97 0 0 1 .5-2.04c.4-.4.89-.6 1.45-.6.56 0 1.05.2 1.45.6.4.4.6.88.6 1.44 0 .57-.2 1.05-.6 1.45a1.97 1.97 0 0 1-1.75.57 22.88 22.88 0 0 0-3.17 7.02c-.58 2.35-.28 4.73.9 7.14H16ZM4.31 11.66c-.64 0-.97.32-.97.96 0 .65.33.97.97.97.66 0 .99-.32.99-.97 0-.64-.33-.96-.99-.96ZM11.6 5.5c-.64 0-.96.32-.96.97 0 .64.32.97.96.97.65 0 .97-.33.97-.97 0-.65-.32-.97-.97-.97ZM9.22 23.73l1.86 1.13-2.1 1.34c.2-.9.28-1.72.24-2.47Zm18.47-12.07c-.66 0-.99.32-.99.96 0 .65.33.97.99.97.64 0 .97-.32.97-.97 0-.64-.33-.96-.97-.96ZM20.4 5.5c-.65 0-.97.32-.97.97 0 .64.32.97.97.97.64 0 .96-.33.96-.97 0-.65-.32-.97-.96-.97Zm2.37 18.23-1.86 1.13 2.1 1.34a8.1 8.1 0 0 1-.24-2.47Zm-8.95.74 2.17-1.3 2.17 1.35-2.17 1.3-2.17-1.35Z"/>
  </g>
  <g id="wR" fill-rule="evenodd" clip-rule="evenodd">
    <path fill="#F9F9F9" d="m6.8 28.19.25-3.3 2.37-1.8.8-10.76-2.31-1.8-.1-4.31 3.26-.04.08 2.16 3.09.04.1-2.2 3.31-.03.22 2.26 3.02-.07.07-2.16h3.2l-.1 4.46-2.27 1.66.65 10.82 2.7 1.94.28 3.24-18.62-.11Z"/>
    <path fill="#101010" d="M16 23.45h-5.95l.07-1.15h11.76l.07 1.15H16Zm0-10.32h-5.19l.08-1.16h10.22l.08 1.15H16Zm0 15.67H5.98l.46-4.13 2.48-1.84.78-10.3-2.32-1.67-.27-5.33h4.51v2.3h2.15v-2.3h4.46v2.3h2.14v-2.3h4.52l-.27 5.33-2.32 1.67.78 10.3 2.48 1.84.46 4.13H16Zm0-1.16h8.7l-.23-2.33-2.52-1.86-.84-11.48 2.37-1.7.2-3.6h-2.15v2.31h-4.45v-2.3h-2.16v2.3h-4.45v-2.3H8.3l.2 3.59 2.38 1.7-.84 11.48-2.52 1.86-.23 2.33H16Z"/>
  </g>
  <style>
    g{display:none}g:target{display:inline}
  </style>
</svg>