<!--
The lila Anarcandy pieces set from
https://github.com/ornicar/lila/tree/master/public/piece/anarcandy
modified by buhodev (https://github.com/buhodev) for the usage in svelte-chess.
https://github.com/gtim/svelte-chess

License: Attribution-NonCommercial-ShareAlike 4.0 International (CC BY-NC-SA 4.0)
https://creativecommons.org/licenses/by-nc-sa/4.0/

See also: https://github.com/ornicar/lila/blob/master/COPYING.md
-->
<svg xmlns="http://www.w3.org/2000/svg" fill="none" viewBox="0 0 32 32">
  <g id="bB" fill-rule="evenodd" clip-rule="evenodd">
    <path fill="#00173C" d="M16.14 5.32c-.18-.73-.3-1.7-.15-2.77a.31.31 0 0 0-.24-.36l-.72-.12a.3.3 0 0 0-.34.24 7.6 7.6 0 0 0 .17 3.15c-1.92.56-2.6 2.58-3.35 4.78-.47 1.37-.96 2.81-1.79 4-1.92 2.8-3.22 5.18-3.22 7.66 0 5.54 3.92 8.69 9.43 8.73h.11c5.5-.04 9.43-3.2 9.43-8.73 0-2.49-1.3-4.87-3.22-7.65a15.96 15.96 0 0 1-1.8-4.01c-.85-2.53-1.63-4.83-4.3-4.92Z"/>
    <path fill="#FF9CAE" d="M17.16 6.93a.3.3 0 1 0-.44-.41 1.8 1.8 0 0 1-.94.46c-.37.07-.73.07-.94.05a.3.3 0 0 0-.06.6c.26.02.68.02 1.11-.07a2.4 2.4 0 0 0 1.27-.63Zm5.03 17.75a5.8 5.8 0 0 1-1.39 1.58c-.17.13-.36-.12-.23-.3 2.35-3.13.74-7.95-.04-10.3l-.11-.32c-.01-.07.08-.1.11-.05l.13.19c1.44 2.07 2.4 3.87 2.4 5.73 0 1.35-.3 2.52-.87 3.47Z"/>
    <path fill="#FF385C" d="m14.34 17.46-.59-2.13c-.15-.05-.21.5-.23.79.03.14.05.43-.03.43s-.08.34-.06.52a2.7 2.7 0 0 0-.4.59c-.23.02-.8.23-1.05.33 0 .06-.07.11-.14.16a.93.93 0 0 0-.12.1l-.33.32c-.1-.08-.18.12-.23.27l-.01.02c-.03.09-.06.15-.08.14a3.7 3.7 0 0 0-.56.88c.02.06-.23.86-.36 1.25l-.92.33-.09.01a.95.95 0 0 1-.34.05c-.06-.03-.1.16-.1.3 0 .08.4.1.67.1l.25.03c.06.02.11-.08.13-.13.04.04.1.12.14.1.02-.03.25-.02.36 0 0 .08.02.26.1.29-.03.02-.06.12 0 .33.06.26.2.49.2.52 0 .03.2.27.32.4l.06.03v.06l.32.28.08.08c-.05 0-.02.3 0 .46-.05 0-.09.2-.1.3-.13.15-.06.43 0 .55.2.05.28-.04.3-.1.03-.06.1-.21.1-.3a.4.4 0 0 1 .1-.22c.01-.12.07-.36.12-.33 0-.05.02-.16.07-.13.04.03.14.1.2.1.05 0 .21.15.29.23.07.03.23.09.36.06.09.04.28.1.33.1.05 0 .1.05.13.07l.5.03c.06 0 .48.1.58 0 .1-.1.43.07.43-.03.31-.06.83-.35 1.05-.5.08 0 .24-.01.16.04-.08.05.12.15.23.2-.03.18.2.53.33.68.18.12.52.27.36-.1a4.7 4.7 0 0 1-.23-1.34c-.1 0 .02-.28.1-.42.13-.08.38-.27.33-.4-.06-.13.04-.23.1-.26-.03-.1-.06-.28 0-.23.05.05.1-.22.12-.36-.1-.05-.02-.3.04-.42.13.05.36-.07.46-.13.02-.14.64-.26.95-.3l.06-.3-1.44-.1a.86.86 0 0 0-.13-.42c.2-.15-.02-.6-.16-.82.05-.2-.46-.74-.73-.98a2.87 2.87 0 0 0-.46-.52c-.16-.01-.54-.1-.75-.33-.2-.23-.61-.25-.79-.23Zm-.13 2.16c-.1-.02-.35-.84-.46-1.24l-.12.3-.17.42c.07.12-.02.4-.07.56l-.03.13-.1.2c-.15.32-.42.88-.23.88.21 0 .64.08.82.13.34-.03.73-.17.89-.23a4.29 4.29 0 0 0-.53-1.15Zm2.04 1.93a.58.58 0 0 1-.4.04c.08.13.03.36 0 .46.1.13.11.33.1.42.07.03.2.11.23.16.03.06.08-.04.1-.1-.03-.05-.01-.17 0-.22.13-.16.2-.57.23-.76-.04-.03-.13-.07-.26 0Zm-4.3-2.25c.1-.14.66-.47.92-.63.02.19-.12.52-.2.66-.02.13-.08.4-.16.42-.08.03-.08.28-.07.4-.15.2-.2.56-.2.72a1.9 1.9 0 0 1-.49-.07c-.06.03-.72.2-.62.03.1-.16.13-.3.1-.3s.08-.2.13-.32c-.05-.05.04-.15.1-.2-.08-.13.14-.35.26-.45.03-.04.13-.13.23-.26Zm-.82 2.52c.13-.02.4-.04.46-.07a.9.9 0 0 0 .33 0c-.09.12-.26.38-.23.46-.08.13-.21.41-.13.49-.03.07-.09.23-.04.26-.11-.07-.32-.2-.3-.23.04-.02-.02-.27-.06-.39 0-.09-.02-.27 0-.3-.03-.06-.08-.2-.03-.22Zm3.6-3.21c.26.16.77.49.8.49.03 0 .72.62.88 1.14.06.04.2.19.2.53h-.1a4.67 4.67 0 0 0-1 .06 3.14 3.14 0 0 0-.41-.95c.02-.03.03-.15-.1-.36-.16-.26-.43-.81-.26-.91Zm-1.9 3.04c.18 0 .54-.01.6.07.08-.05.3-.1.42 0 .13.1.78 0 1.08-.07.03.13.08.39.14.36-.04.04-.03.23.26.76 0 .16.06.49.16.49s.02.13-.03.2a1 1 0 0 1-.46.29c-.26.06-.62.16-.75.23a2.6 2.6 0 0 1-.82-.07l-.04.07c-.13-.11-.42-.31-.55-.23-.12-.11-.38-.31-.43-.23-.07.1-.2-.3-.13-.26.05.02.09-.43.1-.66l.39-.75v-.02c0-.05-.02-.15.07-.18Z"/>
  </g>
  <g id="bK" fill-rule="evenodd" clip-rule="evenodd">
    <path fill="#00173C" d="M15.38 2.13a.5.5 0 0 1 .5-.5h.25a.5.5 0 0 1 .5.5v2.5H18a.5.5 0 0 1 .5.5v.25a.5.5 0 0 1-.5.5h-1.37v.85a4.02 4.02 0 0 1 3.08 2.5c3.4-1.48 7.14-.66 8.7 2.03 1.35 2.36.63 5.44-1.57 7.65.17.47-.05 1-.3 1.37a.28.28 0 0 0 .08.39c.5.31.78.76.93 1.29l.07.02c.22.06.35.25.34.48-.02.92-.14 2.3-.46 3.1-.09.23-.34.32-.58.28a8.94 8.94 0 0 1-1.11 1.87 4.01 4.01 0 0 1-6.29 1.79c-.53.34-1.62.74-3.47.74h-.13c-1.86 0-2.95-.4-3.48-.75a4 4 0 0 1-6.3-1.8 8.94 8.94 0 0 1-1.1-1.86c-.24.05-.49-.04-.58-.27-.32-.8-.44-2.18-.46-3.1 0-.23.12-.42.34-.48l.08-.02c.15-.53.44-.98.93-1.3a.28.28 0 0 0 .08-.38c-.25-.37-.47-.9-.3-1.36-2.2-2.21-2.93-5.3-1.56-7.66 1.55-2.7 5.28-3.5 8.67-2.04a4.02 4.02 0 0 1 3.14-2.5v-.84H14a.5.5 0 0 1-.5-.5v-.25a.5.5 0 0 1 .5-.5h1.38v-2.5Z"/>
    <path fill="#FF9CAE" d="M26.23 13.62c.09.36.69.53.7.16.03-.6-.1-1.2-.4-1.72-.62-1.09-1.85-1.66-3.26-1.68-.15 0-.15.24 0 .28a4.05 4.05 0 0 1 2.96 2.96ZM16 12.38a8.85 8.85 0 0 1 2.4-2.25c.22-.15.5-.1.69.09.1.1.07.28-.05.35A6.93 6.93 0 0 0 16 14.44a6.93 6.93 0 0 0-3.03-3.87.23.23 0 0 1-.05-.35c.18-.2.47-.24.69-.1.97.63 1.78 1.4 2.4 2.26Z"/>
    <path fill="#FFE7EB" d="m15.98 17.86-1.54.06a.32.32 0 0 0-.3.33v.26c.02.26.24.45.5.44a28.86 28.86 0 0 1 2.7 0c.26.01.48-.18.5-.44v-.26a.32.32 0 0 0-.3-.33 72.3 72.3 0 0 0-1.56-.06Zm-5.76 1.04-.03-.32a.32.32 0 0 1 .28-.35c.67-.08 1.37-.14 2.07-.2a.27.27 0 0 1 .3.25l.03.38a.42.42 0 0 1-.37.45c-.59.06-1.18.12-1.76.2a.46.46 0 0 1-.52-.4Zm-3.58.77c-.38-.5.47-.87 1.86-1.14a.5.5 0 0 1 .58.4l.05.27a.32.32 0 0 1-.26.38l-1.57.27c-.24.05-.51.02-.66-.18Zm15.15-1.1-.03.33a.46.46 0 0 1-.52.4 56.9 56.9 0 0 0-1.76-.2.42.42 0 0 1-.37-.44l.03-.38a.27.27 0 0 1 .3-.25c.7.06 1.4.12 2.07.2.17.02.3.18.28.35Zm3.55 1.1c.38-.5-.47-.87-1.87-1.14a.5.5 0 0 0-.58.4l-.05.27c-.03.18.1.35.27.38l1.57.27c.24.05.51.02.66-.18Zm-12.2 8.66a4.5 4.5 0 0 0-6.17-2.31.23.23 0 0 1-.3-.08l-.13-.24-.14-.22a39 39 0 0 1 2.93-.55c.68-.1 1.18-.7 1.13-1.38l-.11-1.3a1.21 1.21 0 0 0-1.38-1.11c-.88.13-1.91.3-2.81.46.26-.28.61-.54 1.09-.78.8-.3 3.69-.9 8.73-.9 5.04 0 7.94.6 8.75.9.47.24.83.5 1.08.78-.9-.16-1.94-.33-2.82-.46-.7-.1-1.32.41-1.38 1.11l-.1 1.3a1.3 1.3 0 0 0 1.12 1.38 39 39 0 0 1 2.94.55l-.15.26-.12.2a.23.23 0 0 1-.3.08 4.5 4.5 0 0 0-6.16 2.31.43.43 0 0 1-.2.2c-.46.2-1.45.5-2.66.5-1.21 0-2.19-.3-2.64-.5a.43.43 0 0 1-.2-.2Z"/>
    <path fill="#FFE7EB" d="M5.53 24.57a4.9 4.9 0 0 1-.28-1.64c0-.12.07-.23.2-.26.54-.12 1.87-.32 2.87-.44.43-.06.82.21.86.59l.06.68c.04.36-.28.68-.7.74-.88.1-1.96.3-2.6.46-.16.05-.35 0-.41-.13Zm20.9 0a5 5 0 0 0 .29-1.64.26.26 0 0 0-.22-.26 38.5 38.5 0 0 0-2.86-.44c-.43-.06-.82.21-.86.59l-.06.68c-.04.36.28.68.7.74.88.1 1.96.3 2.6.46.16.05.35 0 .41-.13Z"/>
  </g>
  <g id="bN" fill-rule="evenodd" clip-rule="evenodd">
    <path fill="#00173C" d="M15.67 17.89v1.95c0 .21-.02.42-.07.63A8.42 8.42 0 0 1 12.5 25c-1.74 1.16-2.12 3.44-2.09 4.82.01.32.28.55.6.55h17.85a.6.6 0 0 0 .61-.59c.25-6.76-1.19-19.66-8.76-22.35a2.5 2.5 0 0 0-.86-.14l-1.57-.05-1.7.05-1.36-2.65c-.13-.2-.47-.48-.83 0-.37.49-1.31 1.26-1.74 1.6L9.47 4.48c-.25-.1-.76-.15-.76.46 0 .6.1 2.47.15 3.33a7.35 7.35 0 0 0-2.13 2.47h-1.9a2.24 2.24 0 0 0-2.08 1.4 2.61 2.61 0 0 0-.23 1.43l.01.1a3.29 3.29 0 0 0 .54 1.4 3.01 3.01 0 0 0 1.87 1.3c-.4.7-.81 1.34-1.07 1.66-.68.83-1.97 5.07 2.12 5.9.6.94 2.2 1.95 3.7-1.44a4.5 4.5 0 0 1 2.2-2.57c1.59-.68 3.63-1.82 3.78-2.04ZM4.74 21.24c.32-.11.93-.37 1.26-.82.22-.29 0-.58-.22-.76a.46.46 0 0 0-.57-.02c-.2.14-.45.34-.52.53a2.51 2.51 0 0 0-.03 1.05.06.06 0 0 0 .08.02ZM9.77 5.87l.1 1.62 1.4-.78-1.5-.84Z"/>
    <path fill="#FF385C" d="M14.57 12.55a2.55 2.55 0 0 0-.35-.58 1.63 1.63 0 0 0-1.2-.53h-8.2a1.63 1.63 0 0 0-1.52 1.01 1.89 1.89 0 0 0-.16 1.03l.01.08a2.37 2.37 0 0 0 .4 1.02 2.1 2.1 0 0 0 1.75.97h.61c.85 0 1.63-.36 2.2-.98h.01a3.37 3.37 0 0 0 .65-1l.02-.04.01-.03a1.55 1.55 0 0 0 .07-.92.21.21 0 0 0-.03-.1 1.52 1.52 0 0 0-.32-.59h.8a1.45 1.45 0 0 0-.35.7c-.07.3-.06.61.06.91l.02.03v.03l.03.05c.15.35.36.66.61.94l.03.03c.58.6 1.36.97 2.2.97h.61a2.14 2.14 0 0 0 1.83-1.08c.16-.27.28-.58.32-.91l.01-.08c.03-.17.02-.35 0-.52 1.2-1.1 2.48-1.06 2.98-.9.35 0 .84-.1 0-.52-.82-.4-2.37.48-3.1 1.01Zm-.7.1a1.13 1.13 0 0 0-.12-.18l-.03-.03a1.04 1.04 0 0 0-.8-.4h-2.47a.81.81 0 0 0-.68.4l-.02.03-.08.19h4.2Zm-4.03 1.1.08.13h4a2.05 2.05 0 0 0 .1-.63H9.64l.01.07c.03.09.1.3.2.43Zm.76.84-.15-.12h3.14c-.04.05-.07.1-.1.12-.28.27-.63.43-1.02.43h-.56c-.47 0-.92-.15-1.3-.43Zm-6.63-1.93h4.2a2.04 2.04 0 0 0-.13-.26.81.81 0 0 0-.65-.35H4.9c-.29 0-.56.12-.77.35l-.03.04-.02.03a.76.76 0 0 0-.12.19Zm4.02 1.09-.08.13h-4a2.06 2.06 0 0 1-.1-.63H8.2l-.02.07c-.03.09-.1.3-.19.43Zm-.6.72H4.23l.1.12c.28.27.64.43 1.02.43h.56a2.27 2.27 0 0 0 1.46-.55Z"/>
    <path fill="#FF9CAE" d="m9.77 5.87.1 1.62 1.4-.78-1.5-.84Zm-2 16.62-.21.44c-.2.34-.46.4-.8.2-.38-.2-.42-.45-.13-.75a.63.63 0 0 0 .19-.23c.29-.6.54-.91.75-.91.3 0 .45.15.47.45 0 .08-.1.35-.27.8Zm9.26-5.52a5.21 5.21 0 0 0 1.11-3.3c-.04-.35-.24-.53-.6-.53-.5 0-.7.18-.59.55.03.59-.02 1.08-.17 1.46-.25.6-.52 1.06-.82 1.37-.16.32-.07.56.29.7.34.16.6.08.78-.25Zm10.19 11.66a.3.3 0 0 0 .3-.28c.42-5.26-.88-15.88-7.11-19.13l-.1-.04a6.8 6.8 0 0 0-2.69-.39.3.3 0 0 0-.26.44l.1.22c.1.2.3.34.53.37 2.96.48 7.98 4.72 7.22 18.47-.01.18.13.34.31.34h1.7ZM4.74 21.24c.32-.11.93-.37 1.26-.82.22-.29 0-.58-.22-.76a.46.46 0 0 0-.57-.02c-.2.14-.45.34-.52.53a2.51 2.51 0 0 0-.03 1.05l.02.01a.06.06 0 0 0 .06.01Z"/>
  </g>
  <g id="bP" fill-rule="evenodd" clip-rule="evenodd">
    <path fill="#00173C" d="M24.25 25.15c-.1-.45-.56-.8-1.02-.8H21.8L17.53 8.63c-.04-.36-1.02-.45-1.6-.45-.59 0-1.57.1-1.6.45l-4.27 15.7H8.78c-.46 0-.92.36-1.01.81l-1 4.15a.94.94 0 0 0 .92 1.15h16.58c.6 0 1.04-.55.91-1.14l-.93-4.16Z"/>
    <path fill="#FF9CAE" d="M15.94 28.1c-3.13 0-5.68-.67-5.8-1.49.04-.44.36-.51.52-.5.9.54 2.93.9 5.28.9s4.38-.36 5.28-.9c.17-.01.5.06.5.5-.1.82-2.65 1.48-5.78 1.48Zm-3.14-8.36c1.24.3 3.71.6 6.3 0 .2-.06.32-.27.26-.48a.4.4 0 0 0-.5-.28 14.2 14.2 0 0 1-5.84-.02.42.42 0 0 0-.5.3c-.06.2.06.43.28.48Zm2.03-7.46a8.9 8.9 0 0 0 2.23 0 .36.36 0 0 0 .29-.45.4.4 0 0 0-.46-.3c-.7.11-1.43.07-1.9 0a.4.4 0 0 0-.45.29c-.06.21.07.43.3.46Z"/>
  </g>
  <g id="bQ" fill-rule="evenodd" clip-rule="evenodd">
    <path fill="#00173C" d="M15.97 8.66c-6.32 0-11.46 4.48-11.46 10 0 2.41.2 5.16 2.47 7.12.88.75 2.21 1.18 3.28 1.52l.4.13c.06.02.09.03.17.47.1.46.21 1.1.87 1.67.23.2.96.84 4.3.87h.02c3.36-.03 4.08-.66 4.32-.87.65-.57.77-1.2.86-1.67.08-.44.11-.45.18-.47l.39-.13c1.07-.34 2.4-.77 3.28-1.52 2.28-1.96 2.47-4.7 2.47-7.12 0-5.52-5.18-10-11.55-10Z"/>
    <path fill="#FF385C" d="M11.22 20.95c-1.4 0-2.28.63-2.28 1.63 0 1.13 1.04 2.08 2.28 2.08 1.3 0 2.28-.8 2.28-1.86 0-1.05-.98-1.85-2.28-1.85Zm9.5 0c-1.3 0-2.28.8-2.28 1.85 0 1.06.98 1.86 2.28 1.86 1.24 0 2.28-.95 2.28-2.08 0-1-.87-1.63-2.28-1.63Zm-4.69 2.95c.3-.02.56.15.64.4l.68 1.99c.1.3-.1.6-.43.69a.71.71 0 0 1-.18.02.65.65 0 0 1-.55-.28c-.13.2-.4.32-.67.27-.35-.05-.57-.34-.5-.65l.42-2c.06-.24.3-.43.6-.44Z"/>
    <path fill="#00173C" d="M17.1 5.9a2.34 2.34 0 1 0-2.12.07c-.34 9.7-2.53 5.46-4.04.64a2.34 2.34 0 1 0-2.22.79c1.39 8.12-1.1 7.58-3.2 3.64a2.34 2.34 0 1 0-1.92 1.09c.55 2.09.87 5.06.96 6.59 0-.78 5.15-1.41 11.5-1.41s11.5.63 11.5 1.4c.07-1.52.32-4.5.86-6.59a2.34 2.34 0 1 0-2-1.1c-2.22 3.72-4.74 4.05-3.02-3.66a2.34 2.34 0 1 0-2.21-.55c-1.55 4.84-3.75 8.97-4.08-.92Z"/>
    <path fill="#FF9CAE" d="M15.97 5a1.16 1.16 0 1 0 0-2.31 1.16 1.16 0 0 0 0 2.31Zm-5.66.1A1.16 1.16 0 1 1 8 5.1a1.16 1.16 0 0 1 2.31 0Zm12.47 1.15a1.16 1.16 0 1 0 0-2.31 1.16 1.16 0 0 0 0 2.31Zm6.78 3.53a1.16 1.16 0 1 1-2.31 0 1.16 1.16 0 0 1 2.31 0Zm-24.87 0a1.16 1.16 0 1 1-2.32 0 1.16 1.16 0 0 1 2.32 0Zm21.87 7.03c.14-1.56.38-3.5.78-5.04a9.9 9.9 0 0 1-1.76 2.26c-.34.3-.72.57-1.13.72-.41.15-.92.2-1.43-.05-1.02-.52-1.28-1.85-1.31-2.94a19.8 19.8 0 0 1 .57-4.63 28.75 28.75 0 0 1-1.3 3.47c-.24.53-.5 1.03-.78 1.44-.26.39-.63.83-1.12 1.06-.26.12-.58.18-.93.1a1.62 1.62 0 0 1-.84-.5 3.97 3.97 0 0 1-.8-1.7 35.5 35.5 0 0 1-.46-4.55c-.1 1.56-.26 3.62-.47 4.47-.16.6-.39 1.23-.79 1.67a1.44 1.44 0 0 1-1.77.38 2.97 2.97 0 0 1-1.1-1.05c-.27-.41-.53-.9-.77-1.43a26.47 26.47 0 0 1-1.28-3.36c.4 2.2.44 3.64.36 4.9a6.1 6.1 0 0 1-.34 1.69c-.2.5-.54.99-1.06 1.24s-1.04.18-1.45 0a3.53 3.53 0 0 1-1.11-.79 9.9 9.9 0 0 1-1.52-2.09c.37 1.49.62 3.28.78 4.74.61-.16 1.4-.29 2.28-.4 2.13-.26 5.05-.41 8.25-.41s6.12.15 8.25.42c.87.1 1.64.23 2.25.38Z"/>
  </g>
  <g id="bR" fill-rule="evenodd" clip-rule="evenodd">
    <path fill="#00173C" d="M20.53 30.38H8.2c-.5 0-.89-.45-.89-1V5.08c0-.39.19-.75.48-.95l2.5-1.68c.33-.21.7-.33 1.08-.33h12.08c.72 0 1.3.58 1.3 1.3v22.02c0 .4-.14.78-.37 1.09l-2.36 3.08c-.37.49-.92.77-1.5.77Z"/>
    <path fill="#FF385C" d="M13.06 18.52a1.77 1.77 0 0 1-.43-.74l-.05.18-.05.17-.06.14a.47.47 0 0 1-.11.12l.17.16.1.12.06.14.13.24.3.6c.06.19.12.38.16.58a1.98 1.98 0 0 1-.68.36 14.47 14.47 0 0 1-.75 3.08 3.28 3.28 0 0 0 1.92.84l.01-5.49a1.96 1.96 0 0 1-.72-.5Zm-1.26 3.5c.13-.48.23-.96.32-1.45a7.45 7.45 0 0 0-1.07-1.63c-.1.49-.21.95-.36 1.38-.16.42-.34.8-.56 1.14a10.98 10.98 0 0 0 .59 1.07 4.89 4.89 0 0 0 .7.83c.13-.41.26-.86.38-1.33Zm6.07-5.78a.68.68 0 0 0 .06-.28v-.46h.65a22.5 22.5 0 0 0-.54-1.73 6.92 6.92 0 0 0-.78 2.88c.1 0 .18 0 .26-.04a.8.8 0 0 0 .21-.15.9.9 0 0 0 .14-.22Zm-.35 1.92a.54.54 0 0 0-.26-.07 6.8 6.8 0 0 0 .84 2.94 10.94 10.94 0 0 0 .5-1.74l-.67-.03v-.48a.61.61 0 0 0-.06-.25.9.9 0 0 0-.14-.22.8.8 0 0 0-.2-.15Z"/>
    <path fill="#FF385C" d="M16.68 16.26c.03.1.09.18.16.24.03-.32.08-.63.14-.92a6.85 6.85 0 0 1 .5-1.58c.11-.24.24-.45.38-.63a7 7 0 0 0-1.31-2.02 17.6 17.6 0 0 0-.82 4.16l.11-.01v3.76l-.11-.02a14.81 14.81 0 0 0 .3 2.23l.24.99c.08.3.18.6.28.9a6.71 6.71 0 0 0 1.3-1.96 5.81 5.81 0 0 1-.88-2.2c-.05-.3-.1-.6-.13-.93a.61.61 0 0 0-.16.24.6.6 0 0 0-.07.29v.46h-.4V15.5h.4v.47c0 .1.02.2.07.3Zm-5.04-.6c.2-.09.42-.15.64-.17-.09-.8-.2-1.53-.34-2.22-.15-.7-.32-1.33-.53-1.9a6.6 6.6 0 0 0-.68.86c-.22.3-.42.65-.6 1.03.23.35.43.76.6 1.24.16.46.28.96.35 1.5.17-.14.35-.25.56-.33Zm-1.58 2.39a1.02 1.02 0 0 0-.28-.07c0-.09 0-.16.03-.23a.44.44 0 0 1 .13-.16.3.3 0 0 1 .2-.11.34.34 0 0 1 .2-.03c0-.18.03-.35.1-.52.05-.16.13-.3.24-.43l-.1-.8a8.9 8.9 0 0 0-.4-1.43 4.68 4.68 0 0 0-.28-.6c-.2.55-.37 1.14-.48 1.77a10.14 10.14 0 0 0-.01 3.82c.11.6.26 1.18.46 1.74a5.76 5.76 0 0 0 .76-2.48.7.7 0 0 0-.12-.2.8.8 0 0 0-.21-.16 1.11 1.11 0 0 0-.24-.11Zm3.2-2.18c.17.09.34.15.52.19l-.01-5.77a3.28 3.28 0 0 0-1.9.74 11.17 11.17 0 0 1 .59 2.07 19.2 19.2 0 0 1 .33 2.44c.15.13.3.24.48.33Zm1.04-5.56v5.79a1.72 1.72 0 0 0 .93-.32c.02-.45.07-.89.14-1.33a15.3 15.3 0 0 1 .47-2.35c.1-.36.2-.7.32-1.01a3.27 3.27 0 0 0-1.87-.78Zm1.1 10.19c-.06-.41-.1-.82-.13-1.23a2.7 2.7 0 0 1-.97-.07l-.02 5.3a3.84 3.84 0 0 0 1.9-.84 12.6 12.6 0 0 1-.58-2c-.08-.39-.15-.78-.2-1.16Zm2.85-2.19v.7h1.4v-.28h-.57v-.36h-.29v.36h-.25v-.42h-.3Zm0-.47v.29h1.4v-.3h-1.4Zm0-.64v.43h1.4v-.43a.53.53 0 0 0-.04-.17.18.18 0 0 0-.04-.07l-.07-.07a1.15 1.15 0 0 0-.7-.11.7.7 0 0 0-.13.01.57.57 0 0 0-.38.2.47.47 0 0 0-.04.2Zm1.08.15h-.78v-.08c0-.08.03-.13.09-.17a1.5 1.5 0 0 1 .56-.03c.05.02.08.04.1.07l.02.06.01.07v.08Zm-1.08-1.49v.77h1.4v-.78h-.32v.5h-.27v-.46h-.3v.46h-.22v-.49h-.3Z"/>
    <path fill="#FF9CAE" d="M20.23 5.26H9.03c-.24 0-.76-.13-.59-.33.25-.28.63-.28.99-.27h10.6c.42 0 .96 0 1.3-.28l1.58-1.2c.28-.21.81-.55 1.1-.32.11.1-.38.51-.59.69L22 4.72c-.5.42-.53 1.01-.53 1.7V27.7c0 .38-.05 1.02-.38 1.16-.23.1-.25-.34-.25-.61V6.15c0-.5-.33-.89-.6-.89Zm-8.66-2.2-.33.18c-.21.12-.11.4.14.4h2.86c.2 0 .4-.05.56-.14l.27-.17c.2-.12.1-.4-.15-.4H12.1c-.18 0-.36.05-.52.14Z"/>
    <path fill="#FF9CAE" d="m16.8 3.11-.22.15c-.2.12-.09.38.16.38h3.03c.2 0 .4-.05.56-.15l.27-.16c.2-.12.1-.4-.15-.4h-3.06c-.22 0-.43.07-.6.18Z"/>
  </g>
  <g id="wB" fill-rule="evenodd" clip-rule="evenodd">
    <path fill="#00173C" d="M9.72 14.27c2.39-3.43 1.97-8.93 6.26-8.93 4.3 0 3.88 5.5 6.27 8.93 1.93 2.78 3.22 5.17 3.22 7.66 0 5.53-3.92 8.68-9.43 8.72h-.11c-5.51-.04-9.43-3.19-9.43-8.72 0-2.5 1.3-4.88 3.22-7.66Z"/>
    <path fill="#FF9CAE" d="M12.1 11.8c-.21.6-.47 1.24-.78 1.86l-.32.6-.4.62c-1.92 2.78-3.03 4.92-3.03 7.05 0 2.5.88 4.36 2.29 5.62 1.43 1.27 3.52 2.01 6.08 2.03h.09c2.56-.02 4.65-.76 6.08-2.03 1.41-1.26 2.29-3.13 2.29-5.62 0-2.13-1.1-4.27-3.03-7.05a13.39 13.39 0 0 1-1.51-3.08l-.43-1.24c-.2-.58-.38-1.1-.6-1.64a5.3 5.3 0 0 0-1.13-1.89c-.4-.37-.9-.62-1.72-.62-.81 0-1.32.25-1.72.62a5.3 5.3 0 0 0-1.13 1.9c-.22.52-.4 1.05-.6 1.63-.12.39-.26.8-.42 1.23Z"/>
    <path fill="#00173C" d="m15.29 7.46.04.07c-.22.02-.4.02-.54 0a.42.42 0 1 0-.08.84 4 4 0 0 0 1.15-.06c.44-.1.95-.28 1.32-.67a.42.42 0 0 0-.6-.58l-.09.08a7.37 7.37 0 0 1-.56-3.96.31.31 0 0 0-.24-.36l-.72-.13a.3.3 0 0 0-.34.24 8.01 8.01 0 0 0 .66 4.53Zm6.54 17.28a5.8 5.8 0 0 1-1.39 1.58c-.17.13-.36-.12-.23-.3 2.35-3.13.74-7.94-.04-10.3l-.11-.32c-.01-.06.08-.1.11-.05l.13.19c1.44 2.08 2.4 3.87 2.4 5.74 0 1.35-.3 2.5-.87 3.46Z"/>
    <path fill="#810F23" d="m14.4 17.49-.58-2.13c-.16-.05-.22.5-.23.78.02.15.04.43-.04.43-.07 0-.07.35-.06.52a2.7 2.7 0 0 0-.4.6c-.23.02-.8.22-1.04.32 0 .07-.07.12-.15.17a.94.94 0 0 0-.12.1l-.32.32c-.1-.08-.18.12-.24.27v.02c-.04.08-.07.15-.1.14a4.3 4.3 0 0 0-.55.88c.03.05-.23.85-.36 1.24a24.16 24.16 0 0 1-1 .35c-.12.03-.3.07-.34.05-.07-.04-.1.16-.1.3 0 .08.39.1.66.1l.26.02c.05.03.1-.07.13-.13.03.04.1.13.13.1.02-.03.25-.01.36 0 0 .09.02.27.1.3-.02.02-.06.11 0 .32.06.26.2.5.2.53 0 .02.21.27.32.39l.07.03v.07l.31.27c.06.06.1.09.08.09-.05 0-.02.3 0 .45-.05 0-.09.2-.1.3-.13.16-.05.44 0 .56.21.05.29-.05.3-.1.03-.07.1-.22.1-.3 0-.08.06-.18.1-.23.02-.12.07-.35.13-.32 0-.06 0-.16.06-.13.04.03.14.1.2.1.05 0 .22.15.3.22.06.04.22.1.35.07.1.03.28.1.33.1.05 0 .11.04.13.06l.5.03c.06 0 .49.1.58 0 .1-.1.43.07.43-.03.32-.05.83-.35 1.05-.49.09-.01.24-.02.16.03-.08.06.12.16.23.2-.02.18.21.53.33.69.19.12.52.27.36-.1a4.69 4.69 0 0 1-.23-1.34c-.1 0 .02-.29.1-.43.13-.07.38-.26.33-.4-.05-.12.04-.22.1-.25-.03-.1-.06-.28 0-.23.05.05.1-.22.13-.36-.1-.05-.02-.3.03-.43.13.05.36-.06.46-.13.03-.13.64-.25.95-.3l.07-.29-1.45-.1a.85.85 0 0 0-.13-.42c.21-.16-.02-.61-.16-.82.05-.21-.46-.74-.72-.98a2.9 2.9 0 0 0-.46-.53c-.17 0-.55-.09-.76-.32-.2-.24-.6-.25-.78-.23Zm-.12 2.16c-.1-.03-.35-.84-.46-1.25l-.12.3-.18.42c.07.12-.01.4-.06.57a.72.72 0 0 0-.04.12l-.1.21c-.15.32-.42.87-.22.87.2 0 .63.09.82.13.34-.02.73-.16.88-.23a4.28 4.28 0 0 0-.52-1.14Zm2.03 1.93c-.13.08-.32.05-.4.03.08.13.04.36 0 .46.11.13.11.34.1.43.07.03.2.1.23.16.03.05.08-.04.1-.1a.6.6 0 0 1 0-.23c.13-.15.2-.57.23-.75-.03-.03-.13-.08-.26 0ZM12 19.32c.1-.13.66-.47.92-.62.03.18-.12.51-.2.65-.02.13-.08.4-.16.43-.08.02-.08.27-.06.4-.16.2-.2.56-.2.71a1.9 1.9 0 0 1-.5-.06c-.06.03-.71.2-.62.03.1-.16.14-.3.1-.3-.02 0 .08-.21.13-.32-.05-.06.05-.16.1-.2-.08-.13.14-.36.26-.46.04-.03.13-.13.23-.26Zm-.82 2.52c.14-.01.41-.04.46-.06.07 0 .23.02.33 0-.09.12-.25.38-.23.45-.08.13-.2.42-.13.5-.03.07-.08.22-.04.25-.1-.06-.31-.2-.29-.22.03-.03-.03-.28-.06-.4-.01-.08-.03-.26 0-.29-.04-.07-.09-.2-.04-.23Zm3.61-3.2c.25.16.76.48.79.48.03 0 .72.63.88 1.15.07.03.2.18.2.52h-.1a4.66 4.66 0 0 0-1 .06 3.14 3.14 0 0 0-.4-.94c.01-.03.02-.15-.1-.36-.17-.26-.43-.82-.27-.92Zm-1.9 3.04c.17-.01.54-.02.59.06.09-.04.3-.1.43 0s.77 0 1.08-.06c.02.13.08.38.13.36-.03.03-.03.23.26.75.01.16.06.5.16.5s.03.12-.03.19a1 1 0 0 1-.46.3 5.5 5.5 0 0 0-.75.22 2.6 2.6 0 0 1-.82-.06l-.03.06c-.14-.1-.43-.3-.56-.23-.12-.1-.38-.3-.43-.23-.06.1-.2-.3-.13-.26.05.03.09-.42.1-.65a13.35 13.35 0 0 0 .4-.78c-.01-.05-.02-.14.06-.17Z"/>
  </g>
  <g id="wK" fill-rule="evenodd" clip-rule="evenodd">
    <path fill="#00173C" d="M15.38 2.13a.5.5 0 0 1 .5-.5h.25a.5.5 0 0 1 .5.5v2.5H18a.5.5 0 0 1 .5.5v.25a.5.5 0 0 1-.5.5h-1.37v.85a4.02 4.02 0 0 1 3.08 2.5c3.4-1.48 7.14-.66 8.7 2.03 1.35 2.36.63 5.44-1.57 7.65.17.47-.05 1-.3 1.37a.28.28 0 0 0 .08.39c.5.31.78.76.93 1.29l.07.02c.22.06.35.25.34.48-.02.92-.14 2.3-.46 3.1-.09.23-.34.32-.58.28a8.94 8.94 0 0 1-1.11 1.87 4.01 4.01 0 0 1-6.29 1.79c-.53.34-1.62.74-3.47.74h-.13c-1.86 0-2.95-.4-3.48-.75a4 4 0 0 1-6.3-1.8 8.94 8.94 0 0 1-1.1-1.86c-.24.05-.49-.04-.58-.27-.32-.8-.44-2.18-.46-3.1 0-.23.12-.42.34-.48l.08-.02c.15-.53.44-.98.93-1.3a.28.28 0 0 0 .08-.38c-.25-.37-.47-.9-.3-1.36-2.2-2.21-2.93-5.3-1.56-7.66 1.55-2.7 5.28-3.5 8.67-2.04a4.02 4.02 0 0 1 3.14-2.5v-.84H14a.5.5 0 0 1-.5-.5v-.25a.5.5 0 0 1 .5-.5h1.38v-2.5Z"/>
    <path fill="#FFE7EB" d="m15.98 17.86-1.54.06a.32.32 0 0 0-.3.33v.26c.02.26.24.45.5.44a28.86 28.86 0 0 1 2.7 0c.26.01.48-.18.5-.44v-.26a.32.32 0 0 0-.3-.33 72.3 72.3 0 0 0-1.56-.06Zm-5.76 1.04-.03-.32a.32.32 0 0 1 .28-.35c.67-.08 1.37-.14 2.08-.2a.27.27 0 0 1 .29.25l.03.38a.42.42 0 0 1-.37.45c-.59.06-1.18.12-1.76.2a.46.46 0 0 1-.52-.4Zm-3.58.77c-.38-.5.47-.87 1.86-1.14a.5.5 0 0 1 .58.4l.05.27a.32.32 0 0 1-.26.38l-1.57.27c-.24.05-.51.02-.66-.18Zm15.15-1.1-.03.33a.46.46 0 0 1-.52.4l-1.76-.2a.42.42 0 0 1-.37-.44l.03-.38a.27.27 0 0 1 .3-.25c.7.06 1.4.12 2.07.2.17.02.3.18.28.35Zm3.55 1.1c.38-.5-.47-.87-1.87-1.14a.5.5 0 0 0-.58.4l-.05.27c-.03.18.1.35.27.38l1.57.27c.24.05.51.02.66-.18Zm-12.2 8.66a4.5 4.5 0 0 0-6.17-2.31.23.23 0 0 1-.3-.08l-.13-.24-.14-.22a39 39 0 0 1 2.93-.55c.68-.1 1.18-.7 1.13-1.38l-.1-1.3a1.21 1.21 0 0 0-1.4-1.11c-.87.13-1.9.3-2.8.46.26-.28.61-.54 1.09-.78.8-.3 3.69-.9 8.73-.9 5.04 0 7.94.6 8.75.9.47.24.83.5 1.08.78-.9-.16-1.94-.33-2.82-.46-.7-.1-1.32.41-1.38 1.11l-.1 1.3a1.3 1.3 0 0 0 1.12 1.38c.94.14 2.02.34 2.94.55l-.15.26-.12.2a.23.23 0 0 1-.3.08 4.5 4.5 0 0 0-6.16 2.31.43.43 0 0 1-.2.2c-.46.2-1.45.5-2.66.5-1.21 0-2.19-.3-2.64-.5a.43.43 0 0 1-.2-.2Z"/>
    <path fill="#FFE7EB" d="M5.53 24.57a4.9 4.9 0 0 1-.28-1.64c0-.12.07-.23.2-.26.54-.12 1.87-.32 2.87-.44.43-.06.82.21.86.59l.06.68c.04.36-.28.68-.7.74-.88.1-1.96.3-2.6.46-.16.05-.35 0-.41-.13Zm20.9 0a5 5 0 0 0 .29-1.64.26.26 0 0 0-.22-.26 38.5 38.5 0 0 0-2.86-.44c-.43-.06-.82.21-.86.59l-.06.68c-.04.36.28.68.7.74.88.1 1.96.3 2.6.46.16.05.35 0 .41-.13Z"/>
    <path fill="#FF9CAE" d="M18.62 9.8a8.9 8.9 0 0 0-2.64 2.39 8.91 8.91 0 0 0-2.7-2.44 2.82 2.82 0 0 1 5.34.04Z"/>
    <path fill="#FF9CAE" d="M16 16.85c4.43 0 8.7.61 10.16 1.37 1.75-1.84 2.3-4.35 1.18-6.28-1.42-2.47-5.03-3.06-8.07-1.3a6.99 6.99 0 0 0-3.28 4 6.99 6.99 0 0 0-3.28-4c-3.03-1.76-6.64-1.17-8.07 1.3-1.11 1.92-.56 4.43 1.18 6.27 1.47-.75 5.76-1.36 10.18-1.36Zm10.6-1.58c-.07.37-.65.17-.7-.2a4.63 4.63 0 0 0-.58-1.8 4.87 4.87 0 0 0-3.3-2.3c-.14-.03-.15-.28 0-.28 1.8-.04 3.37.64 4.15 2 .45.77.58 1.67.43 2.58Zm-6.4 13.37a3.54 3.54 0 0 1 4.6-1.38 2.91 2.91 0 0 1-4.6 1.38ZM7.17 27.27c1.3-.56 3.18-.68 4.6 1.36a2.9 2.9 0 0 1-4.6-1.36Z"/>
  </g>
  <g id="wN" fill-rule="evenodd" clip-rule="evenodd">
    <path fill="#00173C" d="M15.36 19.84v-1.95c-.15.22-2.2 1.36-3.78 2.04a4.5 4.5 0 0 0-2.2 2.57c-1.51 3.4-3.1 2.38-3.7 1.44-4.1-.83-2.8-5.07-2.12-5.9.54-.67 1.74-2.8 2.27-3.79l.45-2.87c0-1.1 1.51-2.52 2.27-3.1a96.5 96.5 0 0 1-.15-3.33c0-.61.5-.56.76-.46l3.17 1.74c.43-.33 1.38-1.1 1.75-1.59.36-.48.7-.2.83 0l1.36 2.65 1.7-.05 1.57.05c.3 0 .58.04.86.14 7.57 2.69 9 15.6 8.76 22.35a.62.62 0 0 1-.62.6H10.7a.58.58 0 0 1-.59-.56c-.03-1.38.34-3.66 2.08-4.82a8.42 8.42 0 0 0 3.1-4.53c.06-.2.08-.42.08-.63Z"/>
    <path fill="#FF9CAE" d="M6.75 22.01c.33-.22.99-.39.75.64-.1.2-.37.58-.61.83-.25.24.01.31.14.34.23.03.54-.05.9-.65.09-.15.26-.37.38-.63.51-1.1 1.33-3.15 3.18-3.83 2.22-.82 5.2-2.2 5.23-5.12 0-.1.03-.22.1-.3.23-.22.68-.4 1 .03.04.06.06.14.07.22.05.73-.07 2.34-1.39 3.77.23 1.86-.07 6.23-3.52 8.54-.62.5-1.68 1.49-1.64 3.08 0 .16.14.28.3.28h15.8a.3.3 0 0 0 .32-.3c.06-6.37-.93-18.3-7.78-20.2-.35-.1-1.56-.28-4.1-.22a8.4 8.4 0 0 1-1.5-2.62c-.55.6-1.85 1.7-3.42 2.3-1.97.76-3 1.77-3.46 3.2-.37 1.16-.44 2.4-.47 2.88-.18.53-.94 2.15-2.09 3.79-1.44 2.04-1.84 4.27 1.03 4.72.05-.1.17-.2.78-.75Zm-1.06-1.59c-.34.45-.94.7-1.27.82H4.4a.06.06 0 0 1-.06-.05c-.03-.24-.07-.7.04-1.02.07-.19.32-.39.52-.53a.46.46 0 0 1 .57.02c.22.18.44.47.22.76ZM9.46 5.87l.1 1.62 1.4-.78-1.5-.84Z"/>
    <path fill="#810F23" d="M2.94 11.38h15.9v.6h.6v.6h-.6v-.6h-3.8v.76h-.45v.45H14v.46h-.6v.6h-2.9v-.6h-.6v-.46h-.45v-1.21h-.91v1.21h-.6v.46h-.46v.6H4.45v-.6H4v-.46h-.6v-.6h-.46v-1.21Z"/>
    <path fill="#FF9CAE" d="M6.89 11.98h-.46v.46h.46v-.46Zm-1.06.6h.45v.46h-.45v-.45Zm1.06 0h.45v.46h-.45v-.45Zm-1.06.61h-.46v.46h.46v-.46Zm.45 0h.45v.46h-.45v-.46ZM7.49 12h.45v.45H7.5v-.46Zm5.3 0h-.46v.45h.46v-.46Zm-1.06.6h.45v.45h-.45v-.45Zm1.06 0h.45v.45h-.45v-.45Zm-1.06.6h-.46v.46h.46v-.46Zm.45 0h.46v.46h-.46v-.46ZM13.4 12h.46v.45h-.46v-.46Z"/>
  </g>
  <g id="wP" fill-rule="evenodd" clip-rule="evenodd">
    <path fill="#00173C" d="M24.27 30.45c.6 0 1.05-.56.9-1.15l-.97-4.15c-.1-.45-.56-.8-1.02-.8h-1.43L17.48 8.63c-.03-.36-1.02-.45-1.6-.45-.58 0-1.57.1-1.6.45l-4.27 15.7H8.73c-.46 0-.92.36-1.01.81l-.95 4.16a.94.94 0 0 0 .92 1.14h16.58Z"/>
    <path fill="#FF9CAE" d="M15.2 9.05c.23.05.82.11 1.38 0l.62 2.3c-1.01.23-2.17.1-2.62 0l.62-2.3Zm-.82 3.04-1.8 6.66c1.24.3 4.31.74 6.63 0l-1.8-6.66a8.6 8.6 0 0 1-3.03 0Zm5.04 7.42c-3.01.82-5.96.34-7.05 0l-1.6 5.9-1.96-.02c-.07 0-.23.11-.33.58l-.64 2.93c-.03.16.05.5.64.52.58.02 5.2 0 7.44 0h.03c2.23 0 6.85.02 7.44 0 .58-.03.67-.36.64-.52l-.64-2.93c-.1-.46-.27-.58-.34-.58l-2.03.01-1.6-5.89ZM10.1 26.5c.11.82 2.66 1.48 5.79 1.48s5.67-.66 5.79-1.48c0-.44-.34-.52-.5-.5-.91.53-2.94.9-5.29.9s-4.37-.37-5.28-.9c-.16-.02-.48.06-.51.5Z"/>
  </g>
  <g id="wQ" fill-rule="evenodd" clip-rule="evenodd">
    <path fill="#00173C" d="M16.04 7.72c-6.32 0-11.46 4.68-11.46 10.43 0 2.52.19 5.38 2.47 7.43.87.78 2.2 1.23 3.28 1.59l.39.13c.06.02.1.03.18.49.08.48.2 1.15.86 1.74.24.22.96.87 4.31.9h.02c3.35-.03 4.07-.68 4.3-.9.66-.6.78-1.26.87-1.74.08-.46.11-.47.18-.5l.39-.12c1.07-.36 2.4-.81 3.28-1.6 2.28-2.04 2.47-4.9 2.47-7.42 0-5.75-5.18-10.43-11.54-10.43Z"/>
    <path fill="#FF9CAE" d="M24.27 24.75c-.66.6-1.86 1-2.83 1.32l-.42.14c-.96.34-1.1 1.12-1.2 1.63-.07.4-.13.74-.45 1.02-.05.05-.61.49-3.35.52-2.74-.03-3.3-.47-3.35-.52-.31-.28-.38-.62-.45-1.02-.1-.51-.24-1.3-1.2-1.63l-.42-.14c-.97-.32-2.17-.73-2.83-1.32-1.74-1.55-2.1-3.7-2.1-6.67 0-5.16 4.63-9.36 10.3-9.36 5.73 0 10.4 4.2 10.4 9.36 0 2.97-.36 5.12-2.1 6.67Z"/>
    <path fill="#810F23" d="M20.82 20.14c-1.54 0-2.7 1-2.7 2.32 0 1.32 1.16 2.32 2.7 2.32a2.7 2.7 0 0 0 2.7-2.6c0-1.26-1.03-2.04-2.7-2.04Zm-9.48 0c-1.67 0-2.7.78-2.7 2.04a2.7 2.7 0 0 0 2.7 2.6c1.54 0 2.7-1 2.7-2.32 0-1.33-1.16-2.32-2.7-2.32Zm4.7 3.13c.36-.02.68.19.78.5l.83 2.53c.12.37-.12.76-.53.88a.84.84 0 0 1-.22.02.79.79 0 0 1-.67-.36.8.8 0 0 1-.82.35c-.42-.07-.7-.44-.62-.82l.53-2.53a.75.75 0 0 1 .72-.57Z"/>
    <path fill="#00173C" d="M18.31 3.84c0 .89-.48 1.65-1.2 2.05.33 9.89 2.53 5.76 4.08.92a2.34 2.34 0 0 1 1.6-4.06 2.34 2.34 0 0 1 .6 4.6c-1.71 7.72.81 7.4 3.03 3.67a2.34 2.34 0 1 1 2 1.1 36.6 36.6 0 0 0-.86 6.6c0-.78-5.15-1.41-11.5-1.41s-11.5.63-11.5 1.4c-.1-1.52-.4-4.5-.97-6.59h-.06a2.34 2.34 0 1 1 1.98-1.08c2.1 3.94 4.6 4.48 3.21-3.64a2.34 2.34 0 1 1 2.22-.79c1.51 4.82 3.7 9.06 4.04-.64a2.34 2.34 0 1 1 3.33-2.13Z"/>
    <path fill="#66B6FF" d="M15.97 5a1.16 1.16 0 1 0 0-2.31 1.16 1.16 0 0 0 0 2.31Zm6.81 1.25a1.16 1.16 0 1 0 0-2.31 1.16 1.16 0 0 0 0 2.31ZM3.53 10.94a1.16 1.16 0 1 0 0-2.32 1.16 1.16 0 0 0 0 2.32Zm26.03-1.16a1.16 1.16 0 1 1-2.31 0 1.16 1.16 0 0 1 2.31 0ZM9.16 6.25a1.16 1.16 0 1 0 0-2.31 1.16 1.16 0 0 0 0 2.31Zm17.4 10.56c.14-1.56.38-3.5.78-5.04a9.9 9.9 0 0 1-1.76 2.26c-.34.3-.72.57-1.13.72-.41.15-.92.2-1.43-.05-1.02-.52-1.28-1.85-1.31-2.94a19.8 19.8 0 0 1 .57-4.63 28.75 28.75 0 0 1-1.3 3.47c-.24.53-.5 1.03-.78 1.44-.26.39-.63.83-1.12 1.06-.26.12-.58.18-.93.1a1.62 1.62 0 0 1-.84-.5 3.97 3.97 0 0 1-.8-1.7 35.5 35.5 0 0 1-.46-4.55c-.1 1.56-.26 3.62-.47 4.47-.16.6-.39 1.23-.79 1.67a1.44 1.44 0 0 1-1.77.38 2.97 2.97 0 0 1-1.1-1.05c-.27-.41-.53-.9-.77-1.43a26.47 26.47 0 0 1-1.28-3.36c.4 2.2.44 3.64.36 4.9a6.1 6.1 0 0 1-.34 1.69c-.2.5-.54.99-1.06 1.24s-1.04.18-1.45 0a3.53 3.53 0 0 1-1.11-.79 9.9 9.9 0 0 1-1.52-2.09c.37 1.49.62 3.28.78 4.74.61-.16 1.4-.29 2.28-.4 2.13-.26 5.05-.41 8.25-.41s6.12.15 8.25.42c.87.1 1.64.23 2.25.38Z"/>
  </g>
  <g id="wR" fill-rule="evenodd" clip-rule="evenodd">
    <path fill="#00173C" d="M20.53 30.5H8.2c-.5 0-.89-.44-.89-1V5.2c0-.38.19-.75.48-.95l2.5-1.67c.33-.22.7-.33 1.08-.33h12.08c.72 0 1.3.58 1.3 1.29v22.03c0 .4-.14.78-.37 1.08l-2.36 3.08c-.37.5-.92.77-1.5.77Z"/>
    <path fill="#FF9CAE" d="M23.44 26.32c.23-.3.36-.7.36-1.1V3.63a.64.64 0 0 0-.64-.65H11.98c-.34 0-.67.11-.94.3L8.8 4.88c-.32.22-.48.57-.48.96v23c0 .37.26.67.59.67H20.2c.42 0 .82-.2 1.1-.55l2.13-2.64Z"/>
    <path fill="#00173C" d="M19.95 5.57H9.45c-.25 0-.37-.33-.2-.52.26-.3.64-.3 1.01-.3h9.68c.41 0 .81-.15 1.14-.42l.7-.55c.34-.29.8-.53 1.22-.37l.06.02c.23.08.3.33.1.5l-1.02.81c-.66.62-.78 1.07-.78 1.77v21.45c0 .4-.14.74-.45.89-.23.1-.47-.08-.47-.36V6.13c0-.3-.22-.56-.5-.56Z"/>
    <path fill="#00173C" d="m11.46 3.77.33-.21c.15-.1.34-.15.52-.15h2.83c.25 0 .35.32.14.47l-.27.19a.96.96 0 0 1-.55.17H11.6c-.26 0-.35-.33-.14-.47Zm5.35-.16-.22.17c-.19.16-.08.46.16.46h3.03a1 1 0 0 0 .56-.17l.27-.2c.2-.14.1-.46-.15-.46h-3.05a.96.96 0 0 0-.6.2Z"/>
    <path fill="#810F23" d="M13.18 18.64c-.1-.1-.18-.22-.26-.34a1.76 1.76 0 0 1-.17-.4l-.04.19-.05.17-.06.13a.47.47 0 0 1-.11.13 3.64 3.64 0 0 1 .26.28l.07.14.13.23.3.6c.06.2.12.39.16.59-.1.08-.22.15-.34.22-.12.06-.23.11-.34.14a14.47 14.47 0 0 1-.76 3.08 3.28 3.28 0 0 0 1.92.83l.02-5.48a1.97 1.97 0 0 1-.73-.5Zm-1.25 3.51c.12-.48.23-.97.32-1.46a7.43 7.43 0 0 0-1.07-1.63 6.37 6.37 0 0 1-.92 2.52 11.1 11.1 0 0 0 .59 1.07 4.87 4.87 0 0 0 .7.84c.13-.42.26-.86.38-1.34ZM18 16.36a.68.68 0 0 0 .06-.28v-.46h.65a22.98 22.98 0 0 0-.54-1.73 6.92 6.92 0 0 0-.78 2.88c.1 0 .18 0 .26-.03a.8.8 0 0 0 .21-.16.9.9 0 0 0 .14-.22Zm-.35 1.92a.54.54 0 0 0-.26-.07 6.85 6.85 0 0 0 .84 2.94 10.99 10.99 0 0 0 .5-1.74l-.67-.03v-.47a.61.61 0 0 0-.06-.25.9.9 0 0 0-.14-.22.8.8 0 0 0-.2-.16Z"/>
    <path fill="#810F23" d="M16.8 16.39c.04.1.1.17.17.24.03-.33.08-.63.14-.92a6.85 6.85 0 0 1 .5-1.59c.11-.23.24-.44.38-.63a7 7 0 0 0-1.31-2.01 17.58 17.58 0 0 0-.82 4.16l.1-.02v3.76l-.1-.01a14.72 14.72 0 0 0 .3 2.23 15.57 15.57 0 0 0 .52 1.88 6.73 6.73 0 0 0 1.3-1.96 5.8 5.8 0 0 1-.88-2.2c-.05-.29-.1-.6-.13-.93a.61.61 0 0 0-.17.24c-.04.1-.07.2-.07.3v.45h-.4v-3.76h.4v.48c0 .09.03.19.07.29Zm-5.04-.6c.2-.1.42-.15.65-.18-.09-.79-.2-1.53-.34-2.21-.15-.7-.32-1.33-.53-1.9a6.5 6.5 0 0 0-.68.85c-.22.3-.42.65-.6 1.03a6.22 6.22 0 0 1 .95 2.74c.17-.13.35-.25.55-.33Zm-1.57 2.38a1.02 1.02 0 0 0-.28-.07c0-.08 0-.16.03-.22a.44.44 0 0 1 .13-.17c.05-.05.12-.1.2-.1a.28.28 0 0 1 .2-.04c0-.17.03-.35.1-.51.05-.17.13-.31.23-.43-.02-.27-.06-.53-.1-.8a8.9 8.9 0 0 0-.4-1.43 4.68 4.68 0 0 0-.28-.61c-.2.55-.36 1.15-.47 1.78a10.13 10.13 0 0 0-.01 3.81c.1.6.26 1.19.46 1.74a5.76 5.76 0 0 0 .76-2.48.7.7 0 0 0-.12-.2.8.8 0 0 0-.21-.16 1.1 1.1 0 0 0-.24-.1ZM13.4 16c.17.08.34.14.52.18l-.02-5.76a3.28 3.28 0 0 0-1.9.74 11.16 11.16 0 0 1 .6 2.07 19.18 19.18 0 0 1 .33 2.44c.15.12.3.24.47.33Zm1.03-5.57v5.8c.16-.02.32-.04.5-.1.15-.05.3-.13.44-.23.02-.44.07-.88.14-1.32a15.3 15.3 0 0 1 .47-2.35c.1-.36.2-.7.32-1.02a3.28 3.28 0 0 0-1.87-.78Zm1.1 10.2c-.05-.42-.1-.82-.12-1.23a2.7 2.7 0 0 1-.98-.07l-.01 5.3a3.83 3.83 0 0 0 1.9-.85 12.58 12.58 0 0 1-.58-2c-.08-.39-.15-.77-.2-1.16Zm2.86-2.2v.7h1.39v-.28h-.56v-.36h-.29v.36h-.25v-.41h-.3Zm0-.47v.3h1.39v-.3h-1.4Zm-.01-.64v.43h1.39v-.43l-.03-.16a.17.17 0 0 0-.04-.07l-.07-.07a1.15 1.15 0 0 0-.7-.11.7.7 0 0 0-.14 0 .57.57 0 0 0-.37.2.46.46 0 0 0-.04.21Zm1.08.16h-.78v-.09a.2.2 0 0 1 .09-.17 1.5 1.5 0 0 1 .56-.03c.05.03.08.05.1.08l.02.05.01.07v.09Zm-1.08-1.49v.76h1.39v-.78h-.3v.5h-.29v-.46h-.29v.46h-.22V16h-.3Z"/>
  </g>
  <style>
    g{display:none}g:target{display:inline}
  </style>
</svg>