<!--
The lila Tatiana pieces set from
https://github.com/ornicar/lila/tree/master/public/piece/tatiana
modified by buhodev (https://github.com/buhodev) for the usage in svelte-chess.
https://github.com/gtim/svelte-chess

License: Attribution-NonCommercial-ShareAlike 4.0 International (CC BY-NC-SA 4.0)
https://creativecommons.org/licenses/by-nc-sa/4.0/

See also: https://github.com/ornicar/lila/blob/master/COPYING.md
-->
<svg xmlns="http://www.w3.org/2000/svg" fill="none" viewBox="0 0 32 32">
  <g id="bB" fill-rule="evenodd" clip-rule="evenodd">
    <path fill="#5F5955" stroke="#1E1E1E" stroke-linejoin="round" stroke-width=".77" d="M16 3.7c-1.35 0-2.44.55-2.44 1.25l.97 1.7C4.26 15.65 10.88 24 10.88 24h10.24s4.51-5.55.49-12.49l-1.91 3.1c-.43.69-1.26.95-1.86.58-.6-.37-.73-1.23-.3-1.92l2.48-4.02a22.63 22.63 0 0 0-2.55-2.62l.97-1.7c0-.69-1.1-1.25-2.44-1.25Z"/>
    <path fill="#000" d="M16 3.7c-.52 0-1 .08-1.4.22 2.77.54 3.18.72 1.64 2.78L18.3 9c-2.34 5.27-1.02 5.11-1.02 5.11s.44-1.7 2.63-4.97a22.84 22.84 0 0 0-2.45-2.49l.97-1.7c0-.69-1.1-1.25-2.44-1.25Zm5.61 7.82-.65.97c2.4 5.39-2.64 11.52-2.64 11.52h2.8c.1.02 4.45-5.66.49-12.49Z" opacity=".18"/>
    <path fill="#fff" d="M9.7 20.3c-.15-.02-2.2-6.26 3.68-12-1.48 1.21-4.57 8.43-3.69 12Zm5.2-13.77-.94-1.66s.16-.47 1.14-.68c-1.1.87-.63 1.07-.2 2.34Z" opacity=".25"/>
    <path fill="#5F5955" stroke="#1E1E1E" stroke-linejoin="round" stroke-width=".77" d="M16 23.33s-5.84.03-7.48 1.04c-1.1.68-1.37 2.34-1.22 4.05h17.4c.15-1.71-.11-3.37-1.22-4.05-1.64-1-7.48-1.04-7.48-1.04Z"/>
    <path fill="#fff" d="M16 23.77s-5.58-.08-7.44 1.07c-.24.15-.45.54-.61.89.17-.21.32-.4.57-.54 1.64-1 7.48-1.04 7.48-1.04s5.84.03 7.48 1.04c.25.15.38.34.55.55.02-.04-.26-.74-.73-1.02-1.77-.95-7.3-.95-7.3-.95Z" opacity=".25"/>
  </g>
  <g id="bK" fill-rule="evenodd" clip-rule="evenodd">
    <path fill="#5F5955" d="M17.7 9.74V7.48h2.85V4.64h-3.16V2.15h-2.8v2.5h-3.15v2.83h2.84v2.26"/>
    <path stroke="#1E1E1E" stroke-linecap="round" stroke-width=".77" d="M17.7 9.74V7.48h2.85V4.64h-3.16V2.15h-2.8v2.5h-3.15v2.83h2.84v2.26"/>
    <path fill="#5F5955" stroke="#1E1E1E" stroke-linejoin="round" stroke-width=".77" d="M18.11 9.1h-4.23a.9.9 0 1 0 0 1.78h4.23a.9.9 0 1 0 0-1.78Z"/>
    <path fill="#000" d="M16.9 9.1c.47 0 .84.4.84.89 0 .5-.37.9-.83.9h1.26c.46 0 .84-.4.84-.9s-.38-.9-.84-.9h-1.26Z" opacity=".18"/>
    <path fill="#fff" d="M13.84 9.5c-.25 0-.46.22-.46.5 0 .27.2.49.46.49h.56c-.25 0-.46-.22-.46-.5 0-.27.2-.5.46-.5h-.56Z" opacity=".25"/>
    <path fill="#5F5955" stroke="#1E1E1E" stroke-linecap="round" stroke-width=".77" d="M21.53 23.67s4.97-8.52 4.23-10.19c-.75-1.66-5.43-2.87-9.76-2.87s-9.01 1.21-9.76 2.87c-.74 1.67 4.23 10.2 4.23 10.2h11.06Z"/>
    <path fill="#000" d="M16 10.6c10.2 1.69 8.04 6 4.25 14.44l1.3-1.11s4.95-8.78 4.2-10.45c-.98-1.8-4.8-2.66-9.75-2.87Z" opacity=".18"/>
    <path fill="#fff" d="M15.21 11.07c-2.5-.12-9.36 1.15-8.64 3.21.52 2.38 1.76 4.64 2.88 6.72-3.64-6.61-3.8-8.81 5.76-9.93Zm-.24-8.51-.01 2.12h.35l.01-2.12h-.35Zm-3.16 2.47V7.1h.5V5.03h-.5Zm2.83 2.06.01 1.6H15l-.02-1.6h-.33Z" opacity=".25"/>
    <path fill="#000" d="M16.76 2.15v2.5h.63v-2.5h-.63Zm2.84 2.5V7.8h.95V4.64h-.95Zm-2.84 2.83v1.6h.95v-1.6h-.95Z" opacity=".18"/>
    <path fill="#5F5955" stroke="#1E1E1E" stroke-linejoin="round" stroke-width=".77" d="M16 23.33s-5.84.03-7.48 1.04c-1.1.68-1.37 2.34-1.22 4.05h17.4c.15-1.71-.11-3.37-1.22-4.05-1.64-1-7.48-1.04-7.48-1.04Z"/>
    <path fill="#fff" d="M16 23.77s-5.58-.08-7.44 1.07c-.24.15-.45.54-.61.89.17-.21.32-.4.57-.54 1.64-1 7.48-1.04 7.48-1.04s5.84.03 7.48 1.04c.25.15.38.34.55.55.02-.05-.26-.74-.73-1.02-1.77-.95-7.3-.95-7.3-.95Z" opacity=".25"/>
  </g>
  <g id="bN" fill-rule="evenodd" clip-rule="evenodd">
    <path fill="#5F5955" stroke="#1E1E1E" stroke-linejoin="round" stroke-width=".77" d="M16.12 14.73c-.1 4.46-7.52 3.34-7.37 11.59l14.63.07c-1.34-4.12 6.2-16.1-7.63-20.64 0 0-1.56-1.67-3.82-1.81l.14 2.26-2.92 2.93C7.47 11.15 3.56 14.5 4.2 15.3c2 3.39 4.06 2.83 4.06 2.83 2.71-2.9 3.72-1.34 7.87-3.39Z"/>
    <path fill="#000" d="M12.36 9.4c-.5.56-.44.72-.52 1.38.52.08.97.15 1.44.04 1.53-.8.05-2.18-.92-1.42Z" opacity=".4"/>
    <path fill="#000" d="M5.88 14.19c-.54.26-.64.61-.67.94.46.27 1.2-.08 1.3-.92l-.63-.02Z" opacity=".35"/>
    <path fill="#fff" d="M5.24 16.1s.42.72-.7-1.05c.42-1.27 5.28-5.82 7.96-8.67l-.12-1.97s.68 1.08.8 2.22c-2.81 2.8-7.82 6.93-8.21 8.46.02.43.15.65.27 1Z" opacity=".25"/>
    <path fill="#000" d="M8.49 18.08c1.3-2.13 5.37-2.06 7.63-3.35.2.06.09.88.16.79.54-.7 1.87-2.1.55-4.4.34 3.81-8.78 3.58-10.17 6.6-.13.27 1.4.5 1.83.36Z" opacity=".18"/>
    <path fill="#fff" d="M16.51 15.22c-.65 3.72-6.1 3.91-7.03 8.09 1.81-4.1 6.89-3.66 7.03-8.09Z" opacity=".25"/>
    <path fill="#000" d="M11.93 3.94s1.95.47 3.14 2.55c13.12 4.58 4.89 17.88 3.7 19.89l4.61.01c-1.27-2.07 6.11-16.38-7.63-20.64-1.14-.69-1.77-1.67-3.82-1.81Z" opacity=".18"/>
    <path fill="#5F5955" stroke="#1E1E1E" stroke-linejoin="round" stroke-width=".77" d="M16 23.33s-5.84.03-7.48 1.04c-1.1.68-1.37 2.34-1.22 4.05h17.4c.15-1.71-.11-3.37-1.22-4.05-1.64-1-7.48-1.04-7.48-1.04Z"/>
    <path fill="#fff" d="M16 23.77s-5.58-.08-7.44 1.07c-.24.15-.45.54-.61.89.17-.21.32-.4.57-.54 1.64-1 7.48-1.04 7.48-1.04s5.84.03 7.48 1.04c.25.15.38.34.55.55.02-.05-.26-.74-.73-1.02-1.76-.95-7.3-.95-7.3-.95Z" opacity=".25"/>
  </g>
  <g id="bP" fill-rule="evenodd" clip-rule="evenodd">
    <path fill="#5F5955" d="M13.76 17.66h4.48Zm-1.6-6.45c0 1.1.46 2.16 1.26 2.93l-2.34 1.34.28 2.18h2.75c-.5 2.28-1.76 4.7-3.24 5.52-1.47.82-3.39 1.98-3.1 5.24h16.46c.29-3.26-1.63-4.42-3.1-5.25-1.48-.82-2.73-3.23-3.24-5.51h2.75l.28-2.18-2.34-1.34a4.06 4.06 0 0 0 1.26-2.93A3.75 3.75 0 0 0 16 7.42a3.75 3.75 0 0 0-3.84 3.79Z"/>
    <path stroke="#1E1E1E" stroke-linejoin="round" stroke-width=".77" d="M13.76 17.66h4.48m-6.08-6.45c0 1.1.46 2.16 1.26 2.93l-2.34 1.34.28 2.18h2.75c-.5 2.28-1.76 4.7-3.24 5.52-1.47.82-3.39 1.98-3.1 5.24h16.46c.29-3.26-1.63-4.42-3.1-5.25-1.48-.82-2.73-3.23-3.24-5.51h2.75l.28-2.18-2.34-1.34a4.06 4.06 0 0 0 1.26-2.93A3.75 3.75 0 0 0 16 7.42a3.75 3.75 0 0 0-3.84 3.79Z"/>
    <path fill="#000" d="M15.98 7.38c.74-.29 6.1 3.78.41 6.9l2.89 1.34-.36 2h1.7l.27-2.17-2.33-1.35a3.69 3.69 0 0 0 1.25-2.76c-.3-3.46-3.83-3.96-3.83-3.96Zm-1.9 10.24c2.89 5.08 6.07 6.4 8.38 6.38l-1.36-.86a8.3 8.3 0 0 1-3.24-5.52H14.1Z" opacity=".18"/>
    <path fill="#fff" d="m14.07 14.22-1.05 1.5-1.51-.01 2.57-1.49h-.01Zm1.49-6.37c-1.63.09-3.67 2.03-2.81 4.43l.13.41c-.21-2.23 1.36-4.55 2.68-4.84Zm-4.13 16.23c-2.55 1.48-3.27 3.93-3.27 3.93s-.35-2.67 2.53-4.26c2.88-1.59 3.09-3.93 3.75-5.69-.4 2.37-.46 4.54-3 6.02Z" opacity=".25"/>
  </g>
  <g id="bQ" fill-rule="evenodd" clip-rule="evenodd">
    <path fill="#5F5955" stroke="#1E1E1E" stroke-linecap="round" stroke-linejoin="round" stroke-width=".77" d="M15.97 3.26c-.56 0-1.1.2-1.5.55-.4.36-.62.84-.62 1.34 0 .25.06.5.16.73.11.23.27.44.46.61a2.35 2.35 0 0 0 3 0c.2-.17.36-.38.46-.61a1.7 1.7 0 0 0-.46-2.07c-.4-.35-.93-.55-1.5-.55Z"/>
    <path fill="#fff" d="M15.9 3.67c-.25-.14-2.39.51-1.4 2.29-.15-1 .28-2.05 1.4-2.3Z" opacity=".25"/>
    <path fill="#5F5955" stroke="#1E1E1E" stroke-linecap="round" stroke-linejoin="round" stroke-width=".77" d="M15.97 7.05c-4.16 0-6.14 3.76-6.14 6.63h12.33c0-2.87-2.02-6.63-6.19-6.63Z"/>
    <path fill="#fff" d="M11.62 9.59c.67-.95 1.87-2.07 4.38-2.17-.2.18-3.06.73-4.38 2.17Z" opacity=".25"/>
    <path fill="#000" d="M15.9 3.2c1.58.73 1.3 2.47.52 3.55 4.7 2.44 1.41 5.55 1.41 5.55h1.73c1.13.83 4.62-1.75-2.45-5.55 2.26-1.99.06-3.58-1.21-3.55Z" opacity=".18"/>
    <path fill="#5F5955" stroke="#1E1E1E" stroke-linecap="round" stroke-linejoin="round" stroke-width=".77" d="M16 9.74c-1.26 0-1.5 1.7-2.65 1.83-1.16.14-2.16-1.48-3.36-1.1-.95.29-.5 1.66-1.15 2.02-.9.5-2.04-1.17-3.39-.19 4.38 5.65 5.18 7.93 5.11 12.05h10.88c-.07-4.13.73-6.4 5.1-12.05-1.34-.98-2.48.7-3.38.2-.65-.37-.2-1.74-1.15-2.04-1.2-.37-2.2 1.25-3.36 1.11-1.15-.13-1.39-1.83-2.65-1.83h0Z"/>
    <path fill="#fff" d="M6.33 12.38c-.08 0-.2.03-.29.05 1.97 2.63 4.2 6.1 4.54 7.95-.9-3.16-2.09-6.12-3.93-7.98l-.32-.02Z" opacity=".25"/>
    <path fill="#000" d="M25.58 11.99c-6.07 6.4-6.35 11.51-10.84 12.36h6.7c-.06-4.12.74-6.4 5.11-12.05 0 0-.44-.48-.97-.31Z" opacity=".18"/>
    <path fill="#fff" d="M9.54 12.12c.13-.05.76-1.15 1.27-1.24-.9-.22-1.03-.03-1.27 1.24Zm4.87-.68c.6-.54 1.04-1.7 2.07-1.18-.51-.15-1.42.67-2.07 1.18Zm5.5.17c.14.04 1.4-1.06 1.84-.78 0 0-.92.71-1.83.78Z" opacity=".25"/>
    <path fill="#5F5955" stroke="#1E1E1E" stroke-linejoin="round" stroke-width=".77" d="M16 23.33s-5.84.03-7.48 1.04c-1.1.68-1.37 2.34-1.22 4.05h17.4c.15-1.71-.11-3.37-1.22-4.05-1.64-1-7.48-1.04-7.48-1.04Z"/>
    <path fill="#fff" d="M16 23.77s-5.58-.08-7.44 1.07c-.24.15-.45.54-.61.89.17-.21.32-.4.57-.54 1.64-1 7.48-1.04 7.48-1.04s5.84.03 7.48 1.04c.25.15.38.34.55.55.02-.05-.26-.74-.73-1.02-1.77-.95-7.3-.95-7.3-.95Z" opacity=".25"/>
  </g>
  <g id="bR" fill-rule="evenodd" clip-rule="evenodd">
    <path fill="#5F5955" d="M11.48 13.06a32.5 32.5 0 0 1 9.04 0Zm-2.4-6.88c-.68 5.61.7 6.84 2.4 6.88L9.35 24.7h13.3l-2.13-11.63c1.7-.04 3.08-1.27 2.4-6.88l-2.3-.34-.7 2.34-2-.07-.34-2.4h-3.16l-.34 2.4-2 .07-.7-2.33-2.3.33Z"/>
    <path stroke="#1E1E1E" stroke-width=".77" d="M11.48 13.06a32.5 32.5 0 0 1 9.04 0m-9.04 0c-1.7-.04-3.08-1.27-2.4-6.88l2.3-.33.7 2.33 2-.07.34-2.4h3.16l.34 2.4 2 .07.7-2.34 2.3.34c.68 5.61-.7 6.84-2.4 6.88m-9.04 0L9.35 24.7h13.3l-2.13-11.63"/>
    <path fill="#000" d="M11.48 13.06c4.37 0 8.4.27 9.56 10.61l1.49.25-2-10.52c-.03-.2-3.9-1.16-9.05-.34Z" opacity=".18"/>
    <path fill="#fff" d="m9.46 6.54 1.45-.18c-1.22.2-1.48 3.39-1.48 3.39-.15-.12-.12-3.14.03-3.21Zm6.72-.43c-1.06 0-1.62 1.76-1.62 1.76l.22-1.75h1.4Zm4.73.17.6.08c-.5.32-1.02 1.27-1.02 1.27l.42-1.35Zm-9.09 7.14 1.68-.2c-1.68.2-3.13 8.36-3.14 8.4l1.46-8.2Z" opacity=".25"/>
    <path fill="#000" d="M21.77 6.01c.23 4.08-1.25 6.8-5.15 6.75l3.06.36c4.81.2 3.26-6.92 3.24-6.94l-1.15-.17Z" opacity=".18"/>
    <path fill="#5F5955" stroke="#1E1E1E" stroke-linejoin="round" stroke-width=".77" d="M16 23.33s-5.84.03-7.48 1.04c-1.1.68-1.37 2.34-1.22 4.05h17.4c.15-1.71-.11-3.37-1.22-4.05-1.64-1-7.48-1.04-7.48-1.04Z"/>
    <path fill="#fff" d="M16 23.77s-5.58-.08-7.44 1.07c-.24.15-.45.54-.61.89.17-.21.32-.4.57-.54 1.64-1.01 7.48-1.04 7.48-1.04s5.84.03 7.48 1.04c.25.15.38.34.55.55.02-.05-.26-.74-.73-1.02-1.77-.95-7.3-.95-7.3-.95Z" opacity=".25"/>
  </g>
  <g id="wB" fill-rule="evenodd" clip-rule="evenodd">
    <path fill="#F0F0F0" stroke="#3C3C3C" stroke-linejoin="round" stroke-width=".77" d="M16 3.7c-1.35 0-2.44.55-2.44 1.25l.97 1.7C4.26 15.65 10.88 24 10.88 24h10.24s4.51-5.55.49-12.49l-1.91 3.1c-.43.69-1.26.95-1.86.58-.6-.37-.73-1.23-.3-1.92l2.48-4.02a22.63 22.63 0 0 0-2.55-2.62l.97-1.7c0-.69-1.1-1.25-2.44-1.25Z"/>
    <path fill="#000" d="M16 3.7c-.52 0-1 .08-1.4.22 2.77.54 3.18.72 1.64 2.78L18.3 9c-2.34 5.27-1.02 5.11-1.02 5.11s.44-1.7 2.63-4.97a22.84 22.84 0 0 0-2.45-2.49l.97-1.7c0-.69-1.1-1.25-2.44-1.25Zm5.61 7.82-.65.97c2.4 5.39-2.64 11.52-2.64 11.52h2.8c.1.02 4.45-5.66.49-12.49Z" opacity=".15"/>
    <path fill="#fff" d="M9.7 20.3c-.15-.02-2.2-6.26 3.68-12-1.48 1.21-4.57 8.43-3.69 12Zm5.2-13.77-.94-1.66s.16-.47 1.14-.68c-1.1.87-.63 1.07-.2 2.34Z"/>
    <path fill="#F0F0F0" stroke="#3C3C3C" stroke-linejoin="round" stroke-width=".77" d="M16 23.33s-5.84.03-7.48 1.04c-1.1.68-1.37 2.34-1.22 4.05h17.4c.15-1.71-.11-3.37-1.22-4.05-1.64-1-7.48-1.04-7.48-1.04Z"/>
    <path fill="#fff" d="M16 23.77s-5.58-.08-7.44 1.07c-.24.15-.45.54-.61.89.17-.21.32-.4.57-.54 1.64-1 7.48-1.04 7.48-1.04s5.84.03 7.48 1.04c.25.15.38.34.55.55.02-.04-.26-.74-.73-1.02-1.77-.95-7.3-.95-7.3-.95Z"/>
  </g>
  <g id="wK" fill-rule="evenodd" clip-rule="evenodd">
    <path fill="#F0F0F0" d="M17.7 9.74V7.48h2.85V4.64h-3.16V2.15h-2.8v2.5h-3.15v2.83h2.84v2.26"/>
    <path stroke="#3C3C3C" stroke-linecap="round" stroke-width=".77" d="M17.7 9.74V7.48h2.85V4.64h-3.16V2.15h-2.8v2.5h-3.15v2.83h2.84v2.26"/>
    <path fill="#F0F0F0" stroke="#3C3C3C" stroke-linejoin="round" stroke-width=".77" d="M18.11 9.1h-4.23a.9.9 0 1 0 0 1.78h4.23a.9.9 0 1 0 0-1.78Z"/>
    <path fill="#000" d="M16.9 9.1c.47 0 .84.4.84.89 0 .5-.37.9-.83.9h1.26c.46 0 .84-.4.84-.9s-.38-.9-.84-.9h-1.26Z" opacity=".15"/>
    <path fill="#fff" d="M13.84 9.5c-.25 0-.46.22-.46.5 0 .27.2.49.46.49h.56c-.25 0-.46-.22-.46-.5 0-.27.2-.5.46-.5h-.56Z"/>
    <path fill="#F0F0F0" stroke="#3C3C3C" stroke-linecap="round" stroke-width=".77" d="M21.53 23.67s4.97-8.52 4.23-10.19c-.75-1.66-5.43-2.87-9.76-2.87s-9.01 1.21-9.76 2.87c-.74 1.67 4.23 10.2 4.23 10.2h11.06Z"/>
    <path fill="#000" d="M16 10.6c10.2 1.69 8.04 6 4.25 14.44l1.3-1.11s4.95-8.78 4.2-10.45c-.98-1.8-4.8-2.66-9.75-2.87Z" opacity=".15"/>
    <path fill="#fff" d="M15.21 11.07c-2.5-.12-9.36 1.15-8.64 3.21.52 2.38 1.76 4.64 2.88 6.72-3.64-6.61-3.8-8.81 5.76-9.93Zm-.24-8.51-.01 2.12h.35l.01-2.12h-.35Zm-3.16 2.47V7.1h.5V5.03h-.5Zm2.83 2.06.01 1.6H15l-.02-1.6h-.33Z"/>
    <path fill="#000" d="M16.76 2.15v2.5h.63v-2.5h-.63Zm2.84 2.5V7.8h.95V4.64h-.95Zm-2.84 2.83v1.6h.95v-1.6h-.95Z" opacity=".15"/>
    <path fill="#F0F0F0" stroke="#3C3C3C" stroke-linejoin="round" stroke-width=".77" d="M16 23.33s-5.84.03-7.48 1.04c-1.1.68-1.37 2.34-1.22 4.05h17.4c.15-1.71-.11-3.37-1.22-4.05-1.64-1-7.48-1.04-7.48-1.04Z"/>
    <path fill="#fff" d="M16 23.77s-5.58-.08-7.44 1.07c-.24.15-.45.54-.61.89.17-.21.32-.4.57-.54 1.64-1 7.48-1.04 7.48-1.04s5.84.03 7.48 1.04c.25.15.38.34.55.55.02-.05-.26-.74-.73-1.02-1.77-.95-7.3-.95-7.3-.95Z"/>
  </g>
  <g id="wN" fill-rule="evenodd" clip-rule="evenodd">
    <path fill="#F0F0F0" stroke="#3C3C3C" stroke-linejoin="round" stroke-width=".77" d="M16.12 14.73c-.1 4.46-7.52 3.34-7.37 11.59l14.63.07c-1.34-4.12 6.2-16.1-7.63-20.64 0 0-1.56-1.67-3.82-1.81l.14 2.26-2.92 2.93c-1.68 2.02-5.59 5.37-4.96 6.15 2 3.4 4.06 2.84 4.06 2.84 2.71-2.9 3.72-1.34 7.87-3.4Z"/>
    <path fill="#000" d="M12.36 9.4c-.5.55-.44.72-.52 1.38.52.08.97.15 1.44.04 1.53-.8.05-2.18-.92-1.42Z" opacity=".35"/>
    <path fill="#000" d="M5.88 14.19c-.54.26-.64.61-.67.94.46.27 1.2-.08 1.3-.92l-.63-.02Z" opacity=".3"/>
    <path fill="#fff" d="M5.24 16.1s.42.72-.7-1.05c.42-1.27 5.28-5.82 7.96-8.67l-.12-1.97s.68 1.08.8 2.22c-2.81 2.8-7.82 6.93-8.21 8.46.02.43.15.65.27 1Z"/>
    <path fill="#000" d="M8.49 18.08c1.3-2.13 5.37-2.06 7.63-3.35.2.07.09.88.16.79.54-.7 1.87-2.1.55-4.4.34 3.81-8.78 3.58-10.17 6.6-.13.27 1.4.5 1.83.36Z" opacity=".15"/>
    <path fill="#fff" d="M16.51 15.22c-.65 3.72-6.1 3.91-7.03 8.09 1.81-4.1 6.89-3.66 7.03-8.09Z"/>
    <path fill="#000" d="M11.93 3.94s1.95.47 3.14 2.55c13.12 4.58 4.89 17.88 3.7 19.89l4.61.01c-1.27-2.07 6.11-16.38-7.63-20.64-1.14-.69-1.77-1.67-3.82-1.81Z" opacity=".15"/>
    <path fill="#F0F0F0" stroke="#3C3C3C" stroke-linejoin="round" stroke-width=".77" d="M16 23.33s-5.84.03-7.48 1.04c-1.1.68-1.37 2.34-1.22 4.05h17.4c.15-1.71-.11-3.37-1.22-4.05-1.64-1-7.48-1.04-7.48-1.04Z"/>
    <path fill="#fff" d="M16 23.77s-5.58-.08-7.44 1.07c-.24.15-.45.54-.61.89.17-.21.32-.4.57-.54 1.64-1 7.48-1.04 7.48-1.04s5.84.03 7.48 1.04c.25.15.38.34.55.55.02-.05-.26-.74-.73-1.02-1.76-.95-7.3-.95-7.3-.95Z"/>
  </g>
  <g id="wP" fill-rule="evenodd" clip-rule="evenodd">
    <path fill="#F0F0F0" d="M13.76 17.66h4.48Zm-1.6-6.45c0 1.1.46 2.16 1.26 2.93l-2.34 1.34.28 2.18h2.75c-.5 2.28-1.76 4.7-3.24 5.52-1.47.82-3.39 1.98-3.1 5.24h16.46c.29-3.26-1.63-4.42-3.1-5.25-1.48-.82-2.73-3.23-3.24-5.51h2.75l.28-2.18-2.34-1.34a4.06 4.06 0 0 0 1.26-2.93A3.75 3.75 0 0 0 16 7.42a3.75 3.75 0 0 0-3.84 3.79Z"/>
    <path stroke="#3C3C3C" stroke-linejoin="round" stroke-width=".77" d="M13.76 17.66h4.48m-6.08-6.45c0 1.1.46 2.16 1.26 2.93l-2.34 1.34.28 2.18h2.75c-.5 2.28-1.76 4.7-3.24 5.52-1.47.82-3.39 1.98-3.1 5.24h16.46c.29-3.26-1.63-4.42-3.1-5.25-1.48-.82-2.73-3.23-3.24-5.51h2.75l.28-2.18-2.34-1.34a4.06 4.06 0 0 0 1.26-2.93A3.75 3.75 0 0 0 16 7.42a3.75 3.75 0 0 0-3.84 3.79Z"/>
    <path fill="#000" d="M15.98 7.38c.74-.29 6.1 3.78.41 6.9l2.89 1.34-.36 2h1.7l.27-2.17-2.33-1.35a3.69 3.69 0 0 0 1.25-2.76c-.3-3.46-3.83-3.96-3.83-3.96Zm-1.9 10.24c2.89 5.08 6.07 6.4 8.38 6.38l-1.36-.86a8.3 8.3 0 0 1-3.24-5.52H14.1Z" opacity=".15"/>
    <path fill="#fff" d="m14.07 14.22-1.05 1.5-1.51-.01 2.57-1.49h-.01Zm1.49-6.37c-1.63.09-3.67 2.03-2.81 4.43l.13.41c-.21-2.23 1.36-4.55 2.68-4.84Zm-4.13 16.23c-2.55 1.48-3.27 3.93-3.27 3.93s-.35-2.67 2.53-4.26c2.88-1.59 3.09-3.93 3.75-5.69-.4 2.37-.46 4.55-3 6.02Z"/>
  </g>
  <g id="wQ" fill-rule="evenodd" clip-rule="evenodd">
    <path fill="#F0F0F0" stroke="#3C3C3C" stroke-linecap="round" stroke-linejoin="round" stroke-width=".77" d="M15.97 3.26c-.56 0-1.1.2-1.5.55-.4.36-.62.84-.62 1.34 0 .25.06.5.16.73.11.23.27.44.46.61a2.35 2.35 0 0 0 3 0c.2-.17.36-.38.46-.61a1.7 1.7 0 0 0-.46-2.07c-.4-.35-.93-.55-1.5-.55Z"/>
    <path fill="#fff" d="M15.9 3.67c-.25-.14-2.39.51-1.4 2.29-.15-1 .28-2.05 1.4-2.3Z"/>
    <path fill="#F0F0F0" stroke="#3C3C3C" stroke-linecap="round" stroke-linejoin="round" stroke-width=".77" d="M15.97 7.05c-4.16 0-6.14 3.76-6.14 6.63h12.33c0-2.87-2.02-6.63-6.19-6.63Z"/>
    <path fill="#fff" d="M11.62 9.59c.67-.95 1.87-2.07 4.38-2.17-.2.18-3.06.73-4.38 2.17Z"/>
    <path fill="#000" d="M15.9 3.2c1.58.73 1.3 2.47.52 3.55 4.7 2.44 1.41 5.55 1.41 5.55h1.73c1.13.83 4.62-1.75-2.45-5.55 2.26-1.99.06-3.58-1.21-3.55Z" opacity=".15"/>
    <path fill="#F0F0F0" stroke="#3C3C3C" stroke-linecap="round" stroke-linejoin="round" stroke-width=".77" d="M16 9.74c-1.26 0-1.5 1.7-2.65 1.83-1.16.14-2.16-1.48-3.36-1.1-.95.29-.5 1.66-1.15 2.02-.9.5-2.04-1.17-3.39-.19 4.38 5.65 5.18 7.93 5.11 12.05h10.88c-.07-4.13.73-6.4 5.1-12.05-1.34-.98-2.48.7-3.38.2-.65-.37-.2-1.74-1.15-2.04-1.2-.37-2.2 1.25-3.36 1.11-1.15-.13-1.39-1.83-2.65-1.83h0Z"/>
    <path fill="#fff" d="M6.33 12.38c-.08 0-.2.03-.29.05 1.97 2.63 4.2 6.1 4.54 7.95-.9-3.16-2.09-6.12-3.93-7.98l-.32-.02Z"/>
    <path fill="#000" d="M25.58 12c-6.07 6.4-6.35 11.5-10.84 12.35h6.7c-.06-4.12.74-6.4 5.11-12.05 0 0-.44-.48-.97-.3Z" opacity=".15"/>
    <path fill="#fff" d="M9.54 12.12c.13-.05.76-1.15 1.27-1.24-.9-.22-1.03-.03-1.27 1.24Zm4.87-.68c.6-.54 1.04-1.7 2.07-1.18-.51-.15-1.42.67-2.07 1.18Zm5.5.17c.14.04 1.4-1.06 1.84-.78 0 0-.92.71-1.83.78Z"/>
    <path fill="#F0F0F0" stroke="#3C3C3C" stroke-linejoin="round" stroke-width=".77" d="M16 23.33s-5.84.03-7.48 1.04c-1.1.68-1.37 2.34-1.22 4.05h17.4c.15-1.71-.11-3.37-1.22-4.05-1.64-1-7.48-1.04-7.48-1.04Z"/>
    <path fill="#fff" d="M16 23.77s-5.58-.08-7.44 1.07c-.24.15-.45.54-.61.89.17-.21.32-.4.57-.54 1.64-1 7.48-1.04 7.48-1.04s5.84.03 7.48 1.04c.25.15.38.34.55.55.02-.05-.26-.74-.73-1.02-1.77-.95-7.3-.95-7.3-.95Z"/>
  </g>
  <g id="wR" fill-rule="evenodd" clip-rule="evenodd">
    <path fill="#F0F0F0" d="M11.48 13.06a32.5 32.5 0 0 1 9.04 0Zm-2.4-6.88c-.68 5.61.7 6.84 2.4 6.88L9.35 24.7h13.3l-2.13-11.63c1.7-.04 3.08-1.27 2.4-6.88l-2.3-.34-.7 2.34-2-.07-.34-2.4h-3.16l-.34 2.4-2 .07-.7-2.33-2.3.33Z"/>
    <path stroke="#3C3C3C" stroke-width=".77" d="M11.48 13.06a32.5 32.5 0 0 1 9.04 0m-9.04 0c-1.7-.04-3.08-1.27-2.4-6.88l2.3-.33.7 2.33 2-.07.34-2.4h3.16l.34 2.4 2 .07.7-2.34 2.3.34c.68 5.61-.7 6.84-2.4 6.88m-9.04 0L9.35 24.7h13.3l-2.13-11.63"/>
    <path fill="#000" d="M11.48 13.06c4.37 0 8.4.27 9.56 10.61l1.49.25-2-10.52c-.03-.2-3.9-1.16-9.05-.34Z" opacity=".15"/>
    <path fill="#fff" d="m9.46 6.54 1.45-.18c-1.22.2-1.48 3.39-1.48 3.39-.15-.12-.12-3.14.03-3.21Zm6.72-.43c-1.06 0-1.62 1.76-1.62 1.76l.22-1.75h1.4Zm4.73.17.6.08c-.5.32-1.02 1.27-1.02 1.27l.42-1.35Zm-9.09 7.14 1.68-.2c-1.68.2-3.13 8.4-3.13 8.4l1.45-8.2Z"/>
    <path fill="#000" d="M21.77 6.01c.23 4.08-1.25 6.8-5.15 6.75l3.06.36c4.81.2 3.26-6.92 3.24-6.94l-1.15-.17Z" opacity=".15"/>
    <path fill="#F0F0F0" stroke="#3C3C3C" stroke-linejoin="round" stroke-width=".77" d="M16 23.33s-5.84.03-7.48 1.04c-1.1.68-1.37 2.34-1.22 4.05h17.4c.15-1.71-.11-3.37-1.22-4.05-1.64-1-7.48-1.04-7.48-1.04Z"/>
    <path fill="#fff" d="M16 23.77s-5.58-.08-7.44 1.07c-.24.15-.45.54-.61.89.17-.21.32-.4.57-.54 1.64-1.01 7.48-1.04 7.48-1.04s5.84.03 7.48 1.04c.25.15.38.34.55.55.02-.05-.26-.74-.73-1.02-1.77-.95-7.3-.95-7.3-.95Z"/>
  </g>
  <style>
    g{display:none}g:target{display:inline}
  </style>
</svg>