<!--
The lila Tatiana pieces set from
https://github.com/ornicar/lila/tree/master/public/piece/tatiana
modified by buhodev (https://github.com/buhodev) for the usage in svelte-chess.
https://github.com/gtim/svelte-chess

License: Attribution-NonCommercial-ShareAlike 4.0 International (CC BY-NC-SA 4.0)
https://creativecommons.org/licenses/by-nc-sa/4.0/

See also: https://github.com/ornicar/lila/blob/master/COPYING.md
-->
<svg xmlns="http://www.w3.org/2000/svg" fill="none" viewBox="0 0 32 32">
  <g id="bB" fill-rule="evenodd" clip-rule="evenodd">
    <path fill="#545454" stroke="#1E1E1E" stroke-linejoin="round" stroke-width=".96" d="M16 3.68c-1.07 0-1.95.7-1.95 1.57 0 .32.13.64.36.9-1.63 2.11-5.62 6.27-5.75 10.45-.06 2.16 2.51 5.59 2.63 5.93.1.34.85.6 2.09.75-.85 2.94-6.47-.69-9.06 2.16l1.18 2.88c3.57-2 6.38 2.02 10.5-2.19 4.12 4.2 6.94.2 10.5 2.19l1.18-2.88c-2.59-2.85-8.2.78-9.05-2.16 1.24-.15 1.98-.4 2.09-.75.11-.34 2.68-3.77 2.63-5.93-.13-4.18-4.13-8.33-5.75-10.45.23-.26.35-.58.35-.9 0-.87-.87-1.57-1.95-1.57Z"/>
    <path fill="#000" d="M16 13.5c-.44 0-.65.23-.65.66v1.57h-1.53c-.4 0-.61.2-.61.6 0 .4.2.6.61.6h1.53v1.57c0 .43.22.65.65.65.43 0 .66-.22.66-.65v-1.57h1.58c.4 0 .6-.2.6-.6 0-.4-.2-.6-.6-.6h-1.59v-1.57c0-.43-.22-.65-.65-.65Z" opacity=".5"/>
    <path fill="#000" d="M16 3.68a2.2 2.2 0 0 0-1.4.48c2.52.12 2.59 1.45 1.96 2.22.71 1.54 1.8 2.7 2.67 4.12 0 0 7.42 14-8.55 11.04 0 0 .4 1 1.3 1.46.45.23.74.25 1.4.28.84.05 3.41.35 4.03.44 1.24 4.52 8.53.01 9.68 3.16l.6-1.44c-2.4-2.85-6.4.68-9-2.12a6.27 6.27 0 0 0 1.89-.57c0-.1 2.83-3.88 2.77-6.15-.13-4.18-4.13-8.33-5.75-10.45.23-.26.35-.58.35-.9 0-.87-.87-1.57-1.95-1.57Z" opacity=".25"/>
    <path fill="#fff" d="M15.23 4.41c-.46.21-.81.61-.64 1.14.05.2.2.33.3.5a.58.58 0 0 1-.1.48c-1 1.24-3.56 4.1-4.74 6.78-.45 1.11-1 2.4-.9 3.61.31 2.19 2.18 4.74 2.18 4.74s-1.32-2.8-1.44-4.5c-.02-4.53 3.71-7.95 5.31-10.94-.24-1.01-.75-.94.03-1.8ZM5.77 27.64c0-.03-.86-2.09-.86-2.09 1.86-1.63 5.35-.19 7.18-.6-2.74.54-4.89-.33-6.44.7l.12 2Z" opacity=".25"/>
  </g>
  <g id="bK" fill-rule="evenodd" clip-rule="evenodd">
    <path fill="#545454" stroke="#2A2A2A" stroke-width=".96" d="M16 28.34c3.92 0 7.1-.35 7.1-.77l.82-4.02c6.98-4.81 4.12-12.1-2.07-12.07a9 9 0 0 0-3.85.82l-.54-2.52h2.4c.72.08 1.09-.99 1.09-1.64 0-.66-.37-1.65-1.1-1.65h-2.08V4.6c0-.6-1.11-.9-1.78-.9-.67 0-1.78.3-1.78.9v1.9h-2.09c-.72 0-1.09.99-1.09 1.65 0 .65.37 1.72 1.1 1.64h2.39l-.54 2.52a9.15 9.15 0 0 0-3.86-.82c-6.18-.03-9.04 7.26-2.06 12.07l.83 4.02c0 .42 3.17.76 7.09.77H16Z"/>
    <path fill="#000" d="M19.57 6.36c-.33 0-.6.06-.6.12.45.46 2.31 2.67-2.3 2.33-.56.31.09 4.51.54 5.7 0 0 .76-.34 1.27-.6 9.09-2.63 7.82 7.6 2.4 9.4-3.24.5-8.08.7-11.27.22l.26 1.57c4.15.37 4.06.28 9.3.36 2.6 1.75-7.36 2.44-10.28 2.09.06.16 14.18.75 14.2.02l.83-4.04c6.98-4.81 4.12-12.1-2.06-12.07-.54 0-1.16.06-1.76.17l-2.1.65-.54-2.52h2.4c.63.18 1.07-.97 1.09-1.64.1-1.39-.88-1.67-1.37-1.76Z" opacity=".25"/>
    <path fill="#fff" d="M16.62 4.27c-.58-.16-1.59-.12-1.95.34-.03.03-.03.13-.02.18l.01 2.2h-2.12c-.19 0-.49 0-.6.06-.23.12-.44.57-.46 1.1-.02.42.3 1.16.54 1.19.14 0 .35-.02.72-.01-1.16-.43-.86-2.16-.12-2.12l2.24-.02-.03-1.94c0-.6.4-.9 1.07-.9.26 0 .88.02 1.18.12-.32-.19-.46-.2-.46-.2Zm-1.85 6.52-.47 2.26a8.93 8.93 0 0 0-3.82-1.1c-5.8-.46-8.88 6.56-2 11.32l.84 4.08h.06l-.27-4.13c-6.48-4.76-4.23-10.77 1.95-10.74 1.28 0 2.62.6 3.46 1.1l.56-4.23-.3 1.44Z" opacity=".25"/>
  </g>
  <g id="bN" fill-rule="evenodd" clip-rule="evenodd">
    <path fill="#545454" stroke="#1E1E1E" stroke-linejoin="round" stroke-width=".96" d="M14.6 3.7 13 4l-.64 2.18-1.39-.9-.91.26.49 3.17-6.21 9.59c-.23 3.81 1.2 3.85 3.93 4.9 3.18-4.5 6.84-3.22 9.83-6.61.37 4.23-10.14 5.88-8.73 11.7l17.34.03c2.44-10.74.65-17.76-9.35-21.63l-2.77-3Z"/>
    <path fill="#000" d="M13.84 11.34a.9.9 0 0 0-.7.39c-.27.34-.4.75-.48 1.16-.03.18-.06.36-.05.54.02.06.1.04.14.03.4-.08.82-.08 1.22-.2.29-.1.51-.3.66-.54.15-.23.21-.5.3-.75.04-.09.03-.2-.06-.26-.15-.1-.33-.15-.5-.23-.16-.06-.32-.14-.5-.14h-.03Z" opacity=".5"/>
    <path fill="#000" d="m14.6 3.7-.8.14 2.43 3.65c12.2 5.2 12.08 15.87 4.4 20.82h6.08c2.44-10.73.65-17.75-9.35-21.62l-2.77-3Z" opacity=".25"/>
    <path fill="#fff" d="M10.62 5.9c.09 1.09.55 2.83.36 3.09l-6.15 9.43c-.2 2.3.68 3.13.86 3.09-.06 0-.9-1.36-.34-2.97L11.54 9l-.92-3.1c-.09-.1.1.04 0-.02Z" opacity=".25"/>
    <path fill="#000" stroke="#000" stroke-width=".17" d="M17.56 16.4s1.3-1.68 1.28-2.45c-.02-.77.68 3.55-.84 4.07-.06-.26.18-1.1.13-1.28-.2-.78-.57-.26-.57-.35Z" opacity=".25"/>
    <path fill="#fff" d="M18.39 17.92c-1.82 4-9.43 5.21-8.53 9.95-.69-4.18 8.43-5.68 8.53-9.95Z" opacity=".25"/>
    <path fill="#000" d="M6.89 17.99s-.03 1.53-1 1.4c0 0-1.17-.65 1-1.4Z" opacity=".5"/>
  </g>
  <g id="bP" fill-rule="evenodd" clip-rule="evenodd">
    <path fill="#545454" stroke="#1E1E1E" stroke-linejoin="round" stroke-width=".96" d="M16 7.66a3.73 3.73 0 0 0-3.86 3.72 4 4 0 0 0 1.26 2.89c-2.49 1.08-2.33 1.48-2.07 4.14h2.42c-1.06 5.27-5.77 4.06-5.67 9.9h15.84c.1-5.84-4.6-4.63-5.67-9.9h2.42c.26-2.66.42-3.06-2.07-4.14a3.96 3.96 0 0 0 1.26-2.9A3.73 3.73 0 0 0 16 7.67Z"/>
    <path fill="#000" d="M16 7.65c-.38 0-.75.06-1.09.15 5.15.8 4.3 5.73 1.5 6.47 1.18.42 2.38 1.02 2.79 1.57.37.49.09 1.62.09 1.62l-8.04.13.08.65 3.65.02c1.1 5.18 9.04 4.24 8.94 10.05.1-5.81-4.56-4.89-5.65-10.07h2.4c.2-3.19.65-2.3-2.07-3.97a3.97 3.97 0 0 0 1.26-2.9c0-2.11-1.7-3.72-3.86-3.72Z" opacity=".25"/>
    <path fill="#fff" d="M15.2 8.18c-.2-.07-2.75.8-2.56 3.39.08 1.06.78 2.03.88 2l.32.36s-.6-1.27-.6-2.36c0-2.02 1.96-3.4 1.96-3.4Zm-1.01 10.55c-1.26 5.16-5.27 4.14-5.6 9.04 1.12-4.03 4.73-3.53 5.84-9l-.24-.04Zm.05-4.35c-.89.43-2.44.87-2.52 1.78l1.13-.26c.09-.2.4-.9 1.41-1.53h-.02Z" opacity=".25"/>
  </g>
  <g id="bQ" fill-rule="evenodd" clip-rule="evenodd">
    <path fill="#545454" stroke="#1E1E1E" stroke-width=".96" d="M12.24 3.69a2.82 2.82 0 0 0-1.95.79 2.69 2.69 0 0 0-.81 1.9 2.7 2.7 0 0 0 2.06 2.6v6.87l-3.39-4.61a2.64 2.64 0 0 0-1.24-4 2.82 2.82 0 0 0-3 .6 2.69 2.69 0 0 0-.82 1.9c.04 1.31 1.23 2.35 2.74 2.69l.55 2.6 1.12 5.23 1.74 3.2.71 3.99c0 .49 2.73.89 6.1.89 3.37 0 6.1-.4 6.1-.9l.7-3.98 1.75-3.2 1.11-5.22.56-2.61c1.5-.34 2.7-1.38 2.73-2.7a2.63 2.63 0 0 0-.8-1.9 2.77 2.77 0 0 0-1.96-.79 2.82 2.82 0 0 0-1.96.8 2.69 2.69 0 0 0-.8 1.9c0 .53.16 1.05.47 1.5l-3.4 4.61V8.98a2.77 2.77 0 0 0 1.49-.96 2.65 2.65 0 0 0-1.13-4.13 2.82 2.82 0 0 0-3.01.58 2.69 2.69 0 0 0-.81 1.9c0 .89.44 1.7 1.18 2.21l-2.22 6.39-2.23-6.39a2.7 2.7 0 0 0 1.19-2.2 2.64 2.64 0 0 0-.81-1.9 2.77 2.77 0 0 0-1.96-.8Z"/>
    <path fill="#000" d="M26.46 6.83c.6.6 2.09 3.28-1.31 5.38l-3.28 8.3c-4.4.77-9.29.95-12.84-.26l1.2 1.92c4.17 1.42 11.25.3 11.25.3-.68 2.2-1.63 4.22-3.58 5.81 0 0 2.86.08 4.18-.85l1-4.19 1.74-3.2 1.11-5.22.56-2.6c1.51-.35 2.7-1.38 2.73-2.7a2.64 2.64 0 0 0-.8-1.9 2.77 2.77 0 0 0-1.96-.79Z" opacity=".25"/>
    <path fill="#010101" d="M12.24 3.69c-.16 0-.33.01-.49.04 1.92 1.15 1.53 3.7 1.02 4.55l3.28 5.33-.5-1.1-1.73-3.93a2.7 2.7 0 0 0 1.19-2.2 2.63 2.63 0 0 0-.81-1.9 2.77 2.77 0 0 0-1.96-.8Zm7.59 0c-.17 0-.34.01-.5.04 2.89.81 1.13 4.05.42 4.31l.78 6.46V8.98a2.76 2.76 0 0 0 1.48-.96 2.65 2.65 0 0 0-1.13-4.13c-.33-.13-.7-.2-1.05-.2ZM5.8 7.02c-.17 0-.33.01-.5.04 2.08.77 1.94 2.75 1.51 4.1l4.67 4.66-3.39-4.61a2.64 2.64 0 0 0-1.24-3.99c-.33-.14-.69-.2-1.05-.2Z" opacity=".25"/>
    <path fill="#fff" d="M4.4 7.94s-2.09 1.67.09 3.4c-.15-.35-.58-2.41-.08-3.4Zm6.7-3.51c-.22-.1-2.1 1.4-.73 3.3.06-.31-.54-2.42.74-3.3Zm7.78-.06c-.23-.1-2.24 1.39-.84 3.32-.1-.35-.46-2.7.84-3.32Zm-12.64 7.7 1.7 8.05 1.76 3.22.7 3.96.45.14-.7-4.13-1.8-3.18-2.11-8.06Zm19.02-4.32c-.23-.1-2.22 1.46-.83 3.36-.13-.63-.66-2.78.83-3.36Z" opacity=".25"/>
  </g>
  <g id="bR" fill-rule="evenodd" clip-rule="evenodd">
    <path fill="#545454" stroke="#1E1E1E" stroke-width=".96" d="m14.32 5.42-.38 1.56-1.99.12-.35-1.55-2.86.6v4.7c.5 1.27 1.16 1.48 1.78 1.82h1.27L9.94 22.99c-2.54 1.47-3.1 2.13-3.1 5.08h18.24c0-2.95-.57-3.61-3.1-5.08l-1.86-10.32h1.27c.63-.34 1.29-.55 1.79-1.81V6.15l-2.87-.6-.34 1.55-2-.12-.38-1.56h-3.27Z"/>
    <path fill="#000" d="M21.79 5.84c2.45 7.44-8.27 6.11-12.54 5.86 0 0 .05.96 1.32.96h1.29-.02l-.06.3c8.15-.63 6.66 1.82 8.1 9.3l-9.83.35-.06.37-.62.37c3.2.35 14.05-1.86 13.09 4.72h2.67c.15-3.05-1.04-4-3.1-5.09l-1.75-10.49c.18-.11.56 0 1.13-.1.75-.12 1.54-.88 1.81-1.64V6.23l-1.43-.39Z" opacity=".25"/>
    <path fill="#fff" d="m9.2 6.5 1.4-.29c-.78.3-1.04 1.95-1.35 4.07-.1.64-.04-3.78-.04-3.78Zm5.47-.6-.36 1.54 1.24-1.54h-.88Zm6 .18-.32 1.47.9-1.35-.58-.12Zm-8.47 6.94-1.75 9.62 2.23-9.56-.48-.06ZM7.32 27.5c0-.03-.02-.65.1-1.23.13-.65.45-1.28.95-1.69a8.07 8.07 0 0 1 1.81-1.17c-1.34 1.04-2.59 2.32-2.86 4.09Z" opacity=".25"/>
  </g>
  <g id="wB" fill-rule="evenodd" clip-rule="evenodd">
    <path fill="#E9E9E9" stroke="#2A2A2A" stroke-linejoin="round" stroke-width=".96" d="M16 3.68c-1.08 0-1.95.7-1.95 1.57 0 .32.12.64.35.9-1.62 2.12-5.62 6.27-5.75 10.45-.05 2.16 2.52 5.59 2.63 5.93.11.34.86.6 2.1.75-.86 2.94-6.47-.69-9.06 2.16l1.18 2.88c3.57-2 6.38 2.02 10.5-2.19 4.12 4.2 6.93.2 10.5 2.19l1.18-2.88c-2.6-2.85-8.2.78-9.06-2.16 1.24-.15 1.99-.4 2.1-.75.1-.34 2.68-3.77 2.63-5.93-.14-4.18-4.13-8.33-5.76-10.45.23-.26.36-.58.36-.9 0-.87-.87-1.57-1.95-1.57Z"/>
    <path fill="#000" d="M16 13.5c-.45 0-.65.23-.65.66v1.57h-1.53c-.41 0-.62.2-.62.6 0 .4.2.6.62.6h1.53v1.57c0 .43.22.65.65.65.43 0 .65-.22.65-.65v-1.57h1.59c.39 0 .6-.2.6-.6 0-.4-.21-.6-.6-.6h-1.59v-1.57c0-.43-.22-.65-.65-.65Z" opacity=".5"/>
    <path fill="#000" d="M16 3.68a2.2 2.2 0 0 0-1.4.48c2.52.12 2.58 1.45 1.96 2.22.7 1.54 1.8 2.7 2.67 4.12 0 0 7.42 14-8.55 11.04 0 0 .4 1 1.3 1.46.44.23.74.25 1.4.28a75 75 0 0 1 4.03.45c1.24 4.51 8.53 0 9.68 3.15l.59-1.44c-2.38-2.85-6.4.68-9-2.12a6.27 6.27 0 0 0 1.9-.57c0-.1 2.82-3.88 2.77-6.15-.13-4.18-4.13-8.33-5.75-10.45.23-.26.35-.58.35-.9 0-.87-.87-1.57-1.95-1.57Z" opacity=".2"/>
    <path fill="#fff" d="M15.23 4.42c-.46.2-.81.6-.64 1.13.05.2.2.33.3.5a.58.58 0 0 1-.1.48c-1 1.24-3.56 4.1-4.74 6.78-.45 1.11-1 2.4-.9 3.61.3 2.19 2.17 4.74 2.17 4.74s-1.31-2.8-1.43-4.5c-.02-4.53 3.7-7.95 5.3-10.94-.23-1.01-.74-.94.04-1.8ZM5.76 27.64c0-.03-.86-2.09-.86-2.09 1.87-1.63 5.36-.19 7.19-.6-2.74.54-4.89-.33-6.44.7l.11 2Z"/>
  </g>
  <g id="wK" fill-rule="evenodd" clip-rule="evenodd">
    <path fill="#E9E9E9" stroke="#2A2A2A" stroke-width=".96" d="M16 28.34c3.92 0 7.1-.35 7.1-.77l.82-4.02c6.98-4.81 4.12-12.1-2.07-12.07a9 9 0 0 0-3.85.82l-.54-2.52h2.4c.72.08 1.09-.99 1.09-1.64 0-.66-.37-1.65-1.1-1.65h-2.08V4.6c0-.6-1.11-.9-1.78-.9-.67 0-1.78.3-1.78.9v1.9h-2.09c-.72 0-1.09.99-1.09 1.65 0 .65.37 1.72 1.1 1.64h2.39l-.54 2.52a9.15 9.15 0 0 0-3.86-.82c-6.18-.03-9.04 7.26-2.06 12.07l.83 4.02c0 .42 3.17.76 7.09.77H16Z"/>
    <path fill="#000" d="M19.57 6.36c-.33 0-.6.06-.6.12.45.46 2.31 2.67-2.3 2.33-.56.31.09 4.51.54 5.7 0 0 .76-.34 1.27-.6 9.09-2.63 7.82 7.6 2.4 9.4-3.24.5-8.08.7-11.27.22l.26 1.57c4.15.37 4.06.28 9.3.36 2.6 1.75-7.36 2.44-10.28 2.09.06.16 14.18.75 14.2.02l.83-4.04c6.98-4.81 4.12-12.1-2.06-12.07-.54 0-1.16.06-1.76.17l-2.1.65-.54-2.52h2.4c.63.18 1.07-.97 1.09-1.64.1-1.39-.88-1.67-1.37-1.76Z" opacity=".2"/>
    <path fill="#fff" d="M16.62 4.27c-.58-.16-1.59-.12-1.95.34-.03.03-.03.13-.02.18l.01 2.2h-2.12c-.19 0-.49 0-.6.06-.23.12-.44.57-.46 1.1-.02.42.3 1.16.54 1.18.14.02.35-.01.72 0-1.16-.43-.86-2.16-.12-2.13l2.24-.01-.03-1.94c0-.6.4-.9 1.07-.9.26 0 .88.02 1.18.12-.32-.19-.46-.2-.46-.2Zm-1.85 6.52-.47 2.26a8.93 8.93 0 0 0-3.82-1.1c-5.8-.46-8.88 6.56-2 11.32l.84 4.08h.06l-.27-4.13c-6.48-4.76-4.23-10.77 1.95-10.74 1.28 0 2.62.6 3.46 1.1l.56-4.23-.3 1.44Z"/>
  </g>
  <g id="wN" fill-rule="evenodd" clip-rule="evenodd">
    <path fill="#E9E9E9" stroke="#2A2A2A" stroke-linejoin="round" stroke-width=".96" d="M14.6 3.7 13 4l-.64 2.18-1.39-.9-.91.26.49 3.17-6.21 9.59c-.23 3.81 1.2 3.85 3.93 4.9 3.18-4.5 6.84-3.22 9.83-6.61.37 4.23-10.14 5.88-8.73 11.7l17.34.03c2.44-10.74.65-17.76-9.35-21.63l-2.77-3Z"/>
    <path fill="#000" d="M13.84 11.34a.9.9 0 0 0-.7.39c-.27.34-.4.75-.48 1.16-.03.18-.06.36-.05.54.02.06.1.04.14.03.4-.08.83-.08 1.22-.2.29-.1.51-.3.66-.54.15-.23.21-.5.3-.75.04-.09.03-.2-.06-.26-.15-.1-.33-.15-.5-.23-.15-.06-.32-.14-.5-.14h-.03Z" opacity=".5"/>
    <path fill="#000" d="m14.6 3.7-.8.14 2.43 3.65c12.2 5.2 12.08 15.87 4.4 20.82h6.08c2.44-10.73.65-17.75-9.35-21.62l-2.77-3Z" opacity=".2"/>
    <path fill="#fff" d="M10.62 5.9c.09 1.09.55 2.83.36 3.09l-6.15 9.43c-.2 2.3.68 3.13.86 3.09-.06 0-.9-1.36-.34-2.97L11.54 9l-.92-3.1c-.09-.1.1.04 0-.02Z"/>
    <path fill="#000" stroke="#000" stroke-width=".17" d="M17.56 16.4s1.3-1.68 1.28-2.45c-.02-.77.68 3.55-.84 4.07-.06-.26.18-1.1.13-1.28-.2-.78-.57-.26-.57-.35Z" opacity=".2"/>
    <path fill="#fff" d="M18.39 17.92c-1.82 4-9.43 5.21-8.53 9.95-.69-4.18 8.43-5.68 8.53-9.95Z"/>
    <path fill="#000" d="M6.89 17.99s-.03 1.53-1 1.4c0 0-1.17-.65 1-1.4Z" opacity=".5"/>
  </g>
  <g id="wP" fill-rule="evenodd" clip-rule="evenodd">
    <path fill="#E9E9E9" stroke="#2A2A2A" stroke-linejoin="round" stroke-width=".96" d="M16 7.66a3.73 3.73 0 0 0-3.86 3.72 4 4 0 0 0 1.26 2.89c-2.49 1.08-2.33 1.48-2.07 4.14h2.42c-1.06 5.27-5.77 4.06-5.67 9.9h15.84c.1-5.84-4.6-4.63-5.67-9.9h2.42c.26-2.66.42-3.06-2.07-4.14a3.96 3.96 0 0 0 1.26-2.9A3.73 3.73 0 0 0 16 7.67Z"/>
    <path fill="#000" d="M16 7.65c-.38 0-.75.06-1.09.15 5.15.8 4.3 5.73 1.5 6.47 1.18.42 2.38 1.02 2.79 1.57.37.49.09 1.62.09 1.62l-8.04.13.08.65 3.65.02c1.1 5.18 9.04 4.24 8.94 10.05.1-5.81-4.56-4.89-5.65-10.07h2.4c.2-3.19.65-2.3-2.07-3.97a3.97 3.97 0 0 0 1.26-2.9c0-2.11-1.7-3.72-3.86-3.72Z" opacity=".2"/>
    <path fill="#fff" d="M15.2 8.18c-.2-.07-2.75.8-2.56 3.39.08 1.06.78 2.03.88 2l.32.36s-.6-1.27-.6-2.36c0-2.02 1.96-3.4 1.96-3.4Zm-1.01 10.55c-1.26 5.16-5.27 4.14-5.6 9.04 1.12-4.03 4.73-3.53 5.84-9l-.24-.04Zm.05-4.35c-.89.43-2.44.87-2.52 1.78l1.13-.26c.09-.2.4-.9 1.41-1.53h-.02Z"/>
  </g>
  <g id="wQ" fill-rule="evenodd" clip-rule="evenodd">
    <path fill="#E9E9E9" stroke="#2A2A2A" stroke-width=".96" d="M12.22 3.69a2.82 2.82 0 0 0-1.95.79 2.69 2.69 0 0 0-.81 1.9 2.7 2.7 0 0 0 2.06 2.6v6.87l-3.4-4.61a2.64 2.64 0 0 0-1.23-4 2.82 2.82 0 0 0-3 .6 2.69 2.69 0 0 0-.82 1.9c.04 1.31 1.22 2.35 2.74 2.69l.55 2.6 1.11 5.23 1.75 3.2.71 3.99c0 .49 2.73.89 6.1.89 3.36 0 6.1-.4 6.1-.9l.7-3.98 1.75-3.2 1.1-5.22.56-2.61c1.52-.34 2.7-1.38 2.74-2.7a2.63 2.63 0 0 0-.81-1.9 2.77 2.77 0 0 0-1.95-.79 2.82 2.82 0 0 0-1.96.8 2.69 2.69 0 0 0-.8 1.9c0 .53.16 1.05.46 1.5l-3.38 4.61V8.98a2.77 2.77 0 0 0 1.48-.96 2.65 2.65 0 0 0-1.13-4.13 2.82 2.82 0 0 0-3.01.58 2.69 2.69 0 0 0-.81 1.9c0 .89.44 1.7 1.18 2.21l-2.22 6.39-2.23-6.39a2.7 2.7 0 0 0 1.2-2.2 2.63 2.63 0 0 0-.81-1.9 2.77 2.77 0 0 0-1.96-.8Z"/>
    <path fill="#000" d="M26.44 6.83c.6.6 2.08 3.28-1.31 5.38l-3.28 8.3c-4.4.77-9.29.95-12.84-.26l1.2 1.92c4.17 1.42 11.25.3 11.25.3-.68 2.2-1.63 4.22-3.58 5.81 0 0 2.86.08 4.18-.85l1-4.19 1.74-3.2 1.11-5.22.56-2.6c1.5-.35 2.7-1.38 2.73-2.7a2.63 2.63 0 0 0-.8-1.9 2.77 2.77 0 0 0-1.96-.79Z" opacity=".2"/>
    <path fill="#010101" d="M12.22 3.69c-.17 0-.33.01-.49.04 1.92 1.15 1.52 3.7 1.01 4.55l3.29 5.33-.5-1.1-1.73-3.93a2.7 2.7 0 0 0 1.2-2.2 2.64 2.64 0 0 0-.82-1.9 2.77 2.77 0 0 0-1.95-.8Zm7.58 0c-.16 0-.33.01-.49.04 2.89.81 1.13 4.05.42 4.31l.78 6.46V8.98a2.77 2.77 0 0 0 1.48-.96 2.65 2.65 0 0 0-1.13-4.13c-.33-.13-.7-.2-1.06-.2ZM5.78 7.02c-.17 0-.34.01-.5.04 2.08.77 1.94 2.75 1.5 4.1l4.68 4.66-3.4-4.61a2.64 2.64 0 0 0-1.23-3.99c-.33-.14-.7-.2-1.05-.2Z" opacity=".25"/>
    <path fill="#fff" d="M4.39 7.94s-2.1 1.67.07 3.4c-.14-.35-.58-2.41-.07-3.4Zm6.7-3.51c-.24-.1-2.12 1.4-.74 3.3.06-.31-.54-2.42.73-3.3Zm7.77-.06c-.23-.1-2.25 1.39-.84 3.32-.1-.35-.46-2.7.84-3.32Zm-12.64 7.7 1.7 8.05 1.76 3.22.7 3.96.44.14-.7-4.13-1.79-3.18-2.11-8.06Zm19.02-4.32c-.23-.1-2.22 1.46-.83 3.36-.13-.63-.66-2.78.83-3.36Z"/>
  </g>
  <g id="wR" fill-rule="evenodd" clip-rule="evenodd">
    <path fill="#E9E9E9" stroke="#2A2A2A" stroke-width=".96" d="m14.32 5.6-.38 1.55-1.99.12-.35-1.55-2.86.6v4.7c.5 1.27 1.16 1.48 1.78 1.82h1.27L9.94 23.16c-2.54 1.47-3.1 2.13-3.1 5.08h18.24c0-2.95-.57-3.61-3.1-5.08l-1.86-10.32h1.27c.63-.34 1.29-.55 1.79-1.82v-4.7l-2.87-.6-.34 1.55-2-.12-.38-1.56h-3.27Z"/>
    <path fill="#000" d="M21.79 6.01c2.45 7.44-8.27 6.11-12.54 5.86 0 0 .05.96 1.32.96h1.29-.02l-.06.3c8.15-.63 6.66 1.82 8.1 9.3l-9.83.35-.06.37-.62.37c3.2.35 14.05-1.86 13.09 4.72h2.67c.15-3.05-1.04-4-3.1-5.1l-1.75-10.48c.18-.11.56 0 1.13-.1.75-.12 1.54-.88 1.81-1.64V6.4l-1.43-.39Z" opacity=".2"/>
    <path fill="#fff" d="m9.2 6.67 1.4-.29c-.78.3-1.04 1.95-1.35 4.07-.1.64-.04-3.78-.04-3.78Zm5.47-.6-.36 1.54 1.24-1.55h-.88Zm6 .18-.32 1.47.9-1.35-.58-.12Zm-8.47 6.94-1.75 9.62 2.23-9.56-.48-.06ZM7.32 27.67c0-.03-.02-.65.1-1.23.13-.65.45-1.28.95-1.69a8.07 8.07 0 0 1 1.81-1.17c-1.34 1.04-2.59 2.32-2.86 4.09Z"/>
  </g>
  <style>
    g{display:none}g:target{display:inline}
  </style>
</svg>